<?xml version="1.0" encoding="utf-8"?>
<!-- Generator: Adobe Illustrator 21.1.0, SVG Export Plug-In . SVG Version: 6.00 Build 0)  -->
<svg version="1.1" id="Layer_1" xmlns="http://www.w3.org/2000/svg" xmlns:xlink="http://www.w3.org/1999/xlink" x="0px" y="0px"
	 width="63.4px" height="13.2px" viewBox="0 0 63.4 13.2" style="enable-background:new 0 0 63.4 13.2;" xml:space="preserve">
<style type="text/css">
	.st0{fill:#BCBCBC;}
</style>
<g id="Layer_2">
	<g id="Layer_1-2">
		<path class="st0" d="M4.4,11c0-0.1,0-0.1,0.1-0.2c0.1,0,0.1-0.1,0.2-0.1h0.8c0.1,0,0.1,0,0.2,0.1c0.1,0,0.1,0.1,0.1,0.2
			c0,0.3-0.1,0.5-0.2,0.8c-0.1,0.3-0.3,0.5-0.5,0.7c-0.3,0.2-0.6,0.4-0.9,0.5c-0.4,0.1-0.8,0.2-1.3,0.2c-0.4,0-0.8-0.1-1.2-0.2
			c-0.3-0.1-0.6-0.3-0.9-0.6c-0.2-0.2-0.4-0.5-0.6-0.8C0.1,11.3,0,10.9,0,10.5c0-0.2,0-0.5,0-0.8s0-0.6,0-0.8c0-0.4,0.1-0.7,0.3-1.1
			C0.4,7.5,0.6,7.2,0.8,7c0.2-0.2,0.5-0.4,0.9-0.6c0.4-0.1,0.8-0.2,1.2-0.2c0.4,0,0.9,0.1,1.3,0.2C4.5,6.6,4.8,6.8,5,7
			c0.2,0.2,0.4,0.4,0.5,0.7C5.6,8,5.7,8.2,5.7,8.5c0,0.1,0,0.1-0.1,0.2c-0.1,0-0.1,0.1-0.2,0.1H4.7c-0.1,0-0.1,0-0.2-0.1
			c-0.1,0-0.1-0.1-0.1-0.2c0-0.1-0.1-0.3-0.1-0.4C4.2,8,4.1,7.9,4,7.8C3.9,7.7,3.7,7.6,3.5,7.5C3.3,7.5,3.1,7.4,2.9,7.5
			c-0.2,0-0.5,0-0.7,0.1C2,7.6,1.9,7.7,1.7,7.9C1.6,8,1.5,8.2,1.5,8.3C1.4,8.5,1.4,8.7,1.3,8.9c0,0.2,0,0.5,0,0.8c0,0.3,0,0.6,0,0.8
			c0,0.2,0.1,0.4,0.1,0.6c0.1,0.2,0.2,0.3,0.3,0.5c0.1,0.1,0.3,0.2,0.5,0.3C2.4,12,2.7,12,2.9,12c0.2,0,0.4,0,0.7-0.1
			c0.2-0.1,0.3-0.1,0.5-0.2c0.1-0.1,0.2-0.2,0.3-0.3C4.3,11.2,4.4,11.1,4.4,11z"/>
		<path class="st0" d="M9,8c0.3,0,0.7,0,1,0.2c0.5,0.2,1,0.6,1.2,1.1c0.1,0.3,0.2,0.5,0.2,0.8c0,0.1,0,0.1,0,0.2v0.5
			c0,0.1,0,0.1,0,0.2c0,0.3-0.1,0.6-0.2,0.8c-0.1,0.3-0.3,0.5-0.5,0.7c-0.2,0.2-0.4,0.3-0.7,0.4c-0.6,0.2-1.4,0.2-2,0
			c-0.3-0.1-0.5-0.3-0.7-0.4c-0.2-0.2-0.4-0.4-0.5-0.7c-0.1-0.3-0.2-0.5-0.2-0.8c0-0.1,0-0.1,0-0.2s0-0.2,0-0.3s0-0.2,0-0.3
			s0-0.2,0-0.2c0-0.3,0.1-0.6,0.2-0.8C7,8.7,7.5,8.3,8,8.1C8.3,8,8.7,8,9,8z M10.2,10.2c0-0.2-0.1-0.3-0.1-0.5
			C10,9.5,9.9,9.4,9.8,9.4C9.6,9.3,9.5,9.2,9.4,9.2c-0.3-0.1-0.5-0.1-0.8,0c-0.1,0-0.3,0.1-0.4,0.2C8.1,9.4,8.1,9.5,8,9.6
			C7.9,9.8,7.9,10,7.9,10.1c0,0.1,0,0.1,0,0.2s0,0.2,0,0.2s0,0.2,0,0.2s0,0.1,0,0.2c0,0.2,0.1,0.3,0.1,0.5c0.1,0.1,0.2,0.2,0.3,0.3
			C8.4,11.9,8.5,12,8.6,12c0.3,0.1,0.5,0.1,0.8,0c0.1,0,0.3-0.1,0.4-0.2c0.1-0.1,0.2-0.2,0.3-0.3c0.1-0.2,0.1-0.3,0.1-0.5
			c0-0.1,0-0.1,0-0.2v-0.5C10.2,10.3,10.2,10.2,10.2,10.2L10.2,10.2z"/>
		<path class="st0" d="M14.7,8c0.3,0,0.7,0,1,0.2c0.5,0.2,1,0.6,1.2,1.1c0.1,0.3,0.2,0.5,0.2,0.8c0,0.1,0,0.1,0,0.2v0.5
			c0,0.1,0,0.1,0,0.2c0,0.3-0.1,0.6-0.2,0.8c-0.1,0.3-0.3,0.5-0.5,0.7c-0.2,0.2-0.5,0.3-0.7,0.4c-0.6,0.2-1.3,0.2-1.9,0
			c-0.3-0.1-0.5-0.3-0.7-0.4c-0.2-0.2-0.4-0.4-0.5-0.7c-0.1-0.3-0.2-0.5-0.2-0.8c0-0.1,0-0.1,0-0.2s0-0.2,0-0.3s0-0.2,0-0.3
			s0-0.2,0-0.2c0-0.3,0.1-0.6,0.2-0.8c0.3-0.5,0.7-0.9,1.2-1.1C14.1,8.1,14.4,8,14.7,8z M15.9,10.2c0-0.2-0.1-0.3-0.1-0.5
			c-0.1-0.1-0.2-0.2-0.3-0.3c-0.1-0.1-0.2-0.1-0.4-0.2c-0.3-0.1-0.5-0.1-0.8,0c-0.1,0-0.3,0.1-0.4,0.2c-0.1,0.1-0.2,0.2-0.3,0.3
			c-0.1,0.2-0.1,0.3-0.1,0.5c0,0.1,0,0.1,0,0.2s0,0.2,0,0.2s0,0.2,0,0.2s0,0.1,0,0.2c0,0.2,0.1,0.3,0.1,0.5c0.1,0.1,0.2,0.2,0.3,0.3
			c0.1,0.1,0.2,0.1,0.4,0.2c0.3,0.1,0.5,0.1,0.8,0c0.1,0,0.3-0.1,0.4-0.2c0.1-0.1,0.2-0.2,0.3-0.3c0.1-0.2,0.1-0.3,0.1-0.5
			c0-0.1,0-0.1,0-0.2v-0.5C15.9,10.3,15.9,10.2,15.9,10.2L15.9,10.2z"/>
		<path class="st0" d="M19.5,11.2v1.7c0,0.1-0.1,0.3-0.3,0.3l0,0h-0.7c-0.1,0-0.3-0.1-0.3-0.3l0,0V6.5c0-0.1,0.1-0.3,0.3-0.3l0,0
			h0.7c0.1,0,0.3,0.1,0.3,0.3v0v3l1.6-1.3l0.1-0.1C21.4,8,21.4,8,21.5,8h1c0.1,0,0.2,0.1,0.2,0.2c0,0,0,0.1,0,0.1
			c0,0-0.1,0.1-0.1,0.1l-2.2,1.8l2.5,2.4l0.1,0.1c0,0,0,0.1,0,0.1c0,0.1-0.1,0.2-0.2,0.2h-0.9c-0.1,0-0.2,0-0.2-0.1l-0.1-0.1
			L19.5,11.2z"/>
		<path class="st0" d="M24.8,6.2c0.1,0,0.3,0.1,0.2,0.3v0.8c0,0.1-0.1,0.3-0.3,0.3l0,0h-0.8c-0.1,0-0.3-0.1-0.3-0.3v0V6.5
			c0-0.1,0.1-0.3,0.3-0.3l0,0H24.8z M25,12.8c0,0.1-0.1,0.3-0.3,0.3l0,0H24c-0.1,0-0.3-0.1-0.3-0.3l0,0V8.3c0-0.1,0.1-0.3,0.2-0.3
			c0,0,0,0,0,0h0.7c0.1,0,0.3,0.1,0.3,0.3l0,0L25,12.8z"/>
		<path class="st0" d="M26,10.6c0-0.3,0.1-0.7,0.2-1c0.1-0.3,0.3-0.6,0.5-0.8c0.2-0.2,0.5-0.4,0.8-0.6C27.7,8.1,28,8,28.4,8
			c0.3,0,0.7,0.1,1,0.2c0.3,0.1,0.5,0.3,0.8,0.5c0.2,0.2,0.4,0.5,0.5,0.8c0.1,0.3,0.2,0.6,0.2,0.9v0.4c0,0.1-0.1,0.3-0.3,0.3l0,0
			h-3.2c0,0.1,0,0.3,0.1,0.4c0.1,0.1,0.1,0.2,0.2,0.3c0.1,0.1,0.2,0.2,0.4,0.2c0.1,0,0.3,0.1,0.4,0.1c0.2,0,0.3,0,0.5-0.1
			c0.1,0,0.2-0.1,0.3-0.2l0.2-0.1c0.1,0,0.1,0,0.2,0h0.8c0.1,0,0.1,0,0.2,0.1c0.1,0,0.1,0.1,0.1,0.2c0,0.1-0.1,0.2-0.1,0.4
			c-0.1,0.2-0.3,0.3-0.4,0.4c-0.2,0.1-0.4,0.3-0.7,0.4c-0.3,0.1-0.7,0.2-1,0.1c-0.3,0-0.7-0.1-1-0.2c-0.3-0.1-0.5-0.3-0.8-0.5
			c-0.2-0.2-0.4-0.5-0.5-0.8C26,11.3,26,11,26,10.6z M28.4,9.1c-0.2,0-0.3,0-0.5,0.1c-0.1,0-0.2,0.1-0.3,0.2
			c-0.1,0.1-0.2,0.2-0.2,0.3c0,0.1-0.1,0.2-0.1,0.3h2.2c0-0.1,0-0.2-0.1-0.3c0-0.1-0.1-0.2-0.2-0.3c-0.1-0.1-0.2-0.2-0.3-0.2
			C28.7,9.2,28.6,9.1,28.4,9.1L28.4,9.1z"/>
		<path class="st0" d="M32.2,13.1c-0.1,0-0.3-0.1-0.3-0.3l0,0V6.6c0-0.1,0.1-0.3,0.3-0.3H35c0.3,0,0.7,0.1,1,0.2
			c0.3,0.1,0.5,0.3,0.7,0.5C36.8,7.2,37,7.4,37,7.6c0.1,0.2,0.1,0.4,0.1,0.6c0,0.2,0,0.4-0.1,0.5C37,8.9,37,9,36.9,9.2
			c-0.1,0.1-0.1,0.2-0.2,0.3c-0.1,0.1-0.1,0.1-0.2,0.1c0.2,0.2,0.4,0.3,0.5,0.6c0.2,0.3,0.3,0.6,0.2,0.9c0,0.2,0,0.5-0.1,0.7
			c-0.1,0.2-0.2,0.5-0.4,0.6c-0.2,0.2-0.4,0.4-0.7,0.5c-0.3,0.1-0.6,0.2-0.9,0.2L32.2,13.1z M35.9,8.3c0-0.2-0.1-0.4-0.2-0.6
			c-0.2-0.1-0.5-0.2-0.7-0.2h-1.7V9h1.7c0.3,0,0.5,0,0.7-0.2C35.8,8.7,35.9,8.5,35.9,8.3z M33.2,11.9H35c0.3,0,0.6-0.1,0.8-0.2
			c0.3-0.3,0.3-0.8,0-1.2c0,0,0,0,0,0c-0.2-0.2-0.5-0.3-0.8-0.2h-1.8L33.2,11.9z"/>
		<path class="st0" d="M38.4,8.3c0-0.1,0.1-0.3,0.3-0.3h0.7c0.1,0,0.3,0.1,0.3,0.3v2.4c0,0.3,0.1,0.7,0.2,0.9
			c0.2,0.2,0.5,0.4,0.8,0.4c0.3,0,0.6-0.1,0.8-0.4c0.2-0.3,0.3-0.6,0.3-0.9V8.3c0-0.1,0.1-0.2,0.2-0.3h0.7c0.1,0,0.3,0.1,0.3,0.3
			v4.5c0,0.1-0.1,0.3-0.3,0.3H42c-0.1,0-0.3-0.1-0.3-0.3v-0.2c-0.2,0.2-0.3,0.3-0.5,0.4c-0.2,0.1-0.5,0.2-0.8,0.2
			c-0.3,0-0.7,0-1-0.2c-0.2-0.1-0.5-0.3-0.6-0.5c-0.2-0.2-0.3-0.5-0.3-0.7c-0.1-0.3-0.1-0.6-0.1-0.9L38.4,8.3z"/>
		<path class="st0" d="M47.1,8c0.3,0,0.6,0.1,0.9,0.2c0.3,0.1,0.5,0.3,0.7,0.5c0.2,0.2,0.3,0.5,0.4,0.7c0.1,0.3,0.2,0.6,0.2,0.9
			c0,0.1,0,0.2,0,0.3c0,0.1,0,0.2,0,0.3c0,0.3-0.1,0.6-0.2,0.9c-0.1,0.3-0.3,0.5-0.4,0.7c-0.2,0.2-0.4,0.4-0.6,0.5
			c-0.3,0.1-0.6,0.2-0.9,0.2c-0.2,0-0.4,0-0.5-0.1c-0.1,0-0.3-0.1-0.4-0.1c-0.1-0.1-0.2-0.1-0.3-0.2l-0.2-0.2v0.2
			c0,0.1-0.1,0.3-0.3,0.3h-0.7c-0.1,0-0.3-0.1-0.3-0.3V6.5c0-0.1,0.1-0.3,0.3-0.3h0.7c0.1,0,0.3,0.1,0.3,0.3v2.1l0.2-0.2
			c0.1-0.1,0.2-0.1,0.3-0.2C46.3,8.1,46.4,8,46.5,8C46.7,8,46.9,8,47.1,8z M48,10.3c0-0.3-0.1-0.7-0.4-0.9c-0.2-0.2-0.5-0.3-0.8-0.3
			c-0.3,0-0.6,0.1-0.8,0.3c-0.2,0.2-0.4,0.5-0.4,0.8c0,0.2,0,0.5,0,0.7c0,0.3,0.1,0.6,0.4,0.8c0.2,0.2,0.5,0.3,0.8,0.3
			c0.3,0,0.6-0.1,0.8-0.3c0.2-0.2,0.4-0.6,0.4-0.9C48,10.7,48,10.5,48,10.3L48,10.3z"/>
		<path class="st0" d="M53.1,8c0.3,0,0.6,0.1,0.9,0.2c0.3,0.1,0.5,0.3,0.7,0.5c0.2,0.2,0.3,0.5,0.4,0.7c0.1,0.3,0.2,0.6,0.2,0.9
			c0,0.1,0,0.2,0,0.3c0,0.1,0,0.2,0,0.3c0,0.3-0.1,0.6-0.2,0.9c-0.1,0.3-0.3,0.5-0.4,0.7c-0.2,0.2-0.4,0.4-0.7,0.5
			c-0.3,0.1-0.6,0.2-0.9,0.2c-0.2,0-0.4,0-0.5-0.1c-0.1,0-0.3-0.1-0.4-0.1c-0.1-0.1-0.2-0.1-0.3-0.2l-0.2-0.2v0.2
			c0,0.1-0.1,0.3-0.3,0.3h-0.7c-0.1,0-0.3-0.1-0.3-0.3V6.5c0-0.1,0.1-0.3,0.3-0.3h0.7c0.1,0,0.3,0.1,0.3,0.3v2.1l0.2-0.2
			c0.1-0.1,0.2-0.1,0.3-0.2C52.2,8.1,52.4,8,52.5,8C52.7,8,52.9,8,53.1,8z M54,10.3c0-0.3-0.1-0.7-0.4-0.9c-0.2-0.2-0.5-0.3-0.8-0.3
			c-0.3,0-0.6,0.1-0.8,0.3c-0.2,0.2-0.4,0.5-0.4,0.8c0,0.2,0,0.5,0,0.7c0,0.3,0.1,0.6,0.4,0.8c0.2,0.2,0.5,0.3,0.8,0.3
			c0.3,0,0.6-0.1,0.8-0.3c0.2-0.2,0.4-0.6,0.4-0.9C54,10.7,54,10.5,54,10.3L54,10.3z"/>
		<path class="st0" d="M57.6,12.8c0,0.1-0.1,0.3-0.3,0.3h-0.7c-0.1,0-0.3-0.1-0.3-0.3V6.5c0-0.1,0.1-0.3,0.3-0.3h0.7
			c0.1,0,0.3,0.1,0.3,0.3V12.8z"/>
		<path class="st0" d="M58.7,10.6c0-0.3,0.1-0.7,0.2-1c0.1-0.3,0.3-0.6,0.5-0.8c0.2-0.2,0.4-0.4,0.7-0.6C60.3,8,60.7,8,61,8
			c0.3,0,0.7,0.1,1,0.2c0.3,0.1,0.5,0.3,0.8,0.5C63,9,63.1,9.2,63.2,9.5c0.1,0.3,0.2,0.6,0.2,0.9v0.4c0,0.1-0.1,0.3-0.3,0.3h-3.2
			c0,0.1,0,0.3,0.1,0.4c0.1,0.1,0.1,0.2,0.2,0.3c0.1,0.1,0.2,0.1,0.4,0.2c0.1,0,0.3,0,0.4,0c0.2,0,0.3,0,0.5-0.1
			c0.1,0,0.2-0.1,0.3-0.2l0.2-0.1c0.1,0,0.1,0,0.2,0H63c0.1,0,0.1,0,0.2,0.1c0.1,0,0.1,0.1,0.1,0.2c0,0.1-0.1,0.2-0.2,0.4
			c-0.1,0.2-0.3,0.3-0.4,0.4c-0.2,0.1-0.4,0.2-0.7,0.3c-0.3,0.1-0.7,0.2-1,0.1c-0.3,0-0.7,0-1-0.1c-0.3-0.1-0.5-0.3-0.8-0.5
			c-0.2-0.2-0.4-0.5-0.5-0.8C58.7,11.3,58.6,10.9,58.7,10.6z M61,9.1c-0.2,0-0.3,0-0.5,0.1c-0.1,0-0.2,0.1-0.3,0.2
			C60.1,9.5,60,9.6,60,9.7c0,0.1-0.1,0.2-0.1,0.3h2.2c0-0.1,0-0.2-0.1-0.3c0-0.1-0.1-0.2-0.2-0.3c-0.1-0.1-0.2-0.2-0.3-0.2
			C61.4,9.2,61.2,9.1,61,9.1z"/>
		<path class="st0" d="M29.2,3v1.8h-0.6V0.1H30c0.3,0,0.5,0,0.8,0.1c0.2,0.1,0.4,0.2,0.5,0.3c0.1,0.1,0.3,0.3,0.3,0.4
			c0.1,0.2,0.1,0.4,0.1,0.6c0,0.2,0,0.4-0.1,0.6c-0.1,0.2-0.2,0.3-0.3,0.5c-0.2,0.1-0.3,0.2-0.5,0.3C30.5,3,30.2,3,30,3H29.2z
			 M29.2,2.5H30c0.2,0,0.3,0,0.5-0.1c0.1,0,0.2-0.1,0.4-0.2C30.9,2.2,31,2.1,31,2c0-0.1,0.1-0.3,0.1-0.4c0-0.3-0.1-0.5-0.3-0.7
			c-0.2-0.2-0.5-0.3-0.8-0.3h-0.7L29.2,2.5z"/>
		<path class="st0" d="M33.6,1.4c0.2,0,0.4,0,0.7,0.1c0.2,0.1,0.4,0.2,0.5,0.3C34.9,2,35,2.2,35,2.4c0.1,0.2,0.1,0.5,0.1,0.7
			c0,0.2,0,0.5-0.1,0.7C35,4,34.9,4.2,34.7,4.4c-0.1,0.1-0.3,0.3-0.5,0.3c-0.2,0.1-0.4,0.1-0.7,0.1c-0.2,0-0.4,0-0.7-0.1
			c-0.2-0.1-0.4-0.2-0.5-0.3c-0.1-0.2-0.2-0.3-0.3-0.5C32.1,3.6,32,3.4,32,3.1c0-0.2,0-0.5,0.1-0.7c0.1-0.2,0.2-0.4,0.3-0.5
			c0.1-0.1,0.3-0.3,0.5-0.3C33.1,1.5,33.4,1.4,33.6,1.4z M33.6,4.3c0.3,0,0.6-0.1,0.7-0.3c0.2-0.3,0.3-0.6,0.2-0.9
			c0-0.3-0.1-0.6-0.2-0.9c-0.2-0.2-0.4-0.3-0.7-0.3c-0.1,0-0.3,0-0.4,0.1C33,2,32.9,2.1,32.8,2.2c-0.1,0.1-0.1,0.2-0.2,0.4
			c0,0.2-0.1,0.3-0.1,0.5c0,0.3,0.1,0.6,0.2,0.9C33,4.2,33.3,4.4,33.6,4.3z"/>
		<path class="st0" d="M35.5,1.5h0.5c0,0,0.1,0,0.1,0c0,0,0,0,0.1,0.1l0.6,2.1v0.2c0,0.1,0,0.1,0,0.2l0.1-0.2l0.1-0.2l0.7-2.1
			c0,0,0-0.1,0.1-0.1c0,0,0.1,0,0.1,0H38c0,0,0.1,0,0.1,0c0,0,0,0,0.1,0.1l0.7,2.1l0.1,0.2l0,0.2V3.9l0-0.2l0.6-2.1
			c0,0,0-0.1,0.1-0.1c0,0,0.1,0,0.1,0h0.4l-1,3.3h-0.5c-0.1,0-0.1,0-0.1-0.1L38,2.4c0,0,0-0.1,0-0.2V2.1v0.2v0.2l-0.7,2.2
			c0,0.1-0.1,0.1-0.1,0.1h-0.4L35.5,1.5z"/>
		<path class="st0" d="M42.2,1.4c0.2,0,0.4,0,0.5,0.1c0.2,0.1,0.3,0.2,0.4,0.3c0.1,0.1,0.2,0.3,0.3,0.5c0.1,0.2,0.1,0.4,0.1,0.6
			c0,0.1,0,0.1,0,0.2c0,0-0.1,0-0.1,0h-2.2c0,0.2,0,0.4,0.1,0.5c0,0.1,0.1,0.3,0.2,0.4c0.1,0.1,0.2,0.2,0.3,0.2
			c0.1,0.1,0.3,0.1,0.4,0.1c0.1,0,0.2,0,0.4-0.1l0.3-0.1L43.1,4c0,0,0.1,0,0.1,0c0,0,0.1,0,0.1,0.1l0.2,0.2
			c-0.1,0.1-0.2,0.2-0.3,0.2c-0.1,0.1-0.2,0.1-0.3,0.2c-0.1,0-0.2,0.1-0.3,0.1c-0.1,0-0.2,0-0.4,0c-0.2,0-0.4,0-0.6-0.1
			c-0.2-0.1-0.4-0.2-0.5-0.3c-0.1-0.2-0.3-0.3-0.3-0.5c-0.1-0.2-0.1-0.5-0.1-0.8c0-0.2,0-0.4,0.1-0.6C40.8,2.1,40.9,2,41,1.8
			c0.1-0.1,0.3-0.3,0.5-0.3C41.7,1.4,42,1.4,42.2,1.4z M42.2,1.8c-0.2,0-0.5,0.1-0.7,0.2c-0.2,0.2-0.3,0.4-0.3,0.7H43
			c0-0.1,0-0.2,0-0.4c0-0.1-0.1-0.2-0.2-0.3C42.8,2,42.7,2,42.6,1.9C42.5,1.9,42.3,1.9,42.2,1.8L42.2,1.8z"/>
		<path class="st0" d="M44.2,4.8V1.5h0.3c0,0,0.1,0,0.1,0c0,0,0,0.1,0,0.1v0.5c0.1-0.2,0.2-0.4,0.4-0.5c0.2-0.1,0.3-0.2,0.5-0.2h0.2
			c0.1,0,0.1,0,0.2,0.1v0.4c0,0,0,0.1,0,0.1h-0.1h-0.2c-0.1,0-0.2,0-0.3,0c-0.1,0-0.2,0.1-0.2,0.1C45.1,2.2,45,2.3,45,2.4
			c-0.1,0.1-0.1,0.2-0.1,0.3v2.1H44.2z"/>
		<path class="st0" d="M47.8,1.4c0.2,0,0.4,0,0.5,0.1c0.2,0.1,0.3,0.2,0.4,0.3c0.1,0.1,0.2,0.3,0.3,0.5c0.1,0.2,0.1,0.4,0.1,0.6
			c0,0.1,0,0.1,0,0.2c0,0-0.1,0-0.1,0h-2.2c0,0.2,0,0.4,0.1,0.5C47,3.7,47,3.9,47.1,4c0.1,0.1,0.2,0.2,0.3,0.2
			c0.1,0.1,0.3,0.1,0.4,0.1c0.1,0,0.2,0,0.4-0.1l0.3-0.1L48.7,4c0,0,0.1,0,0.1,0c0,0,0.1,0,0.1,0.1l0.2,0.2C49,4.4,49,4.4,48.9,4.5
			c-0.1,0.1-0.2,0.1-0.3,0.2c-0.1,0-0.2,0.1-0.3,0.1c-0.1,0-0.2,0-0.4,0c-0.2,0-0.4,0-0.6-0.1c-0.2-0.1-0.4-0.2-0.5-0.3
			c-0.1-0.2-0.3-0.3-0.3-0.5c-0.1-0.2-0.1-0.5-0.1-0.8c0-0.2,0-0.4,0.1-0.6c0.1-0.2,0.2-0.4,0.3-0.5c0.1-0.1,0.3-0.3,0.5-0.3
			C47.4,1.4,47.6,1.4,47.8,1.4z M47.8,1.8c-0.2,0-0.5,0.1-0.7,0.2c-0.2,0.2-0.3,0.4-0.3,0.7h1.8c0-0.1,0-0.3-0.1-0.4
			c0-0.1-0.1-0.2-0.2-0.3C48.3,2,48.3,2,48.2,1.9C48.1,1.9,47.9,1.9,47.8,1.8L47.8,1.8z"/>
		<path class="st0" d="M52.2,4.8c-0.1,0-0.1,0-0.2-0.1L52,4.2c-0.1,0.2-0.3,0.3-0.5,0.4c-0.2,0.1-0.4,0.2-0.6,0.2
			c-0.2,0-0.4,0-0.5-0.1c-0.2-0.1-0.3-0.2-0.4-0.3c-0.1-0.2-0.2-0.3-0.2-0.5c-0.1-0.2-0.1-0.5-0.1-0.7c0-0.2,0-0.5,0.1-0.7
			c0.1-0.2,0.2-0.4,0.3-0.5c0.1-0.2,0.3-0.3,0.4-0.4c0.2-0.1,0.4-0.1,0.6-0.1c0.2,0,0.4,0,0.5,0.1c0.1,0.1,0.3,0.2,0.4,0.3V0h0.6
			v4.8H52.2z M51.1,4.3c0.2,0,0.3,0,0.5-0.1C51.8,4.1,51.9,4,52,3.8V2.3C51.9,2.1,51.8,2,51.7,2c-0.1-0.1-0.3-0.1-0.4-0.1
			c-0.3,0-0.5,0.1-0.7,0.3c-0.2,0.3-0.3,0.6-0.2,0.9c0,0.2,0,0.4,0.1,0.5c0,0.1,0.1,0.3,0.2,0.4c0.1,0.1,0.2,0.2,0.3,0.2
			C50.9,4.3,51,4.3,51.1,4.3L51.1,4.3z"/>
		<path class="st0" d="M55.2,4.8V0h0.6v2c0.1-0.2,0.3-0.3,0.5-0.4c0.2-0.1,0.4-0.1,0.6-0.1c0.2,0,0.4,0,0.5,0.1
			c0.2,0.1,0.3,0.2,0.4,0.3c0.1,0.1,0.2,0.3,0.2,0.5C58,2.6,58,2.8,58,3c0,0.2,0,0.5-0.1,0.7c-0.1,0.2-0.2,0.4-0.3,0.6
			c-0.1,0.2-0.3,0.3-0.4,0.4c-0.2,0.1-0.4,0.1-0.6,0.1c-0.2,0-0.4,0-0.5-0.1c-0.2-0.1-0.3-0.2-0.4-0.3v0.3c0,0.1-0.1,0.1-0.2,0.1
			L55.2,4.8z M56.6,1.9c-0.2,0-0.3,0-0.5,0.1c-0.1,0.1-0.3,0.2-0.4,0.4V4c0.1,0.1,0.2,0.2,0.3,0.3c0.1,0.1,0.3,0.1,0.4,0.1
			c0.3,0,0.5-0.1,0.7-0.4c0.2-0.3,0.3-0.6,0.2-1c0-0.3-0.1-0.6-0.2-0.9C57.1,1.9,56.8,1.9,56.6,1.9z"/>
		<path class="st0" d="M59.7,5.7C59.7,5.8,59.6,5.8,59.7,5.7c-0.1,0.1-0.2,0.1-0.2,0.1H59l0.6-1.3l-1.3-3h0.5c0,0,0.1,0,0.1,0
			c0,0,0,0,0.1,0.1l0.9,2.1v0.1c0,0,0,0.1,0,0.1c0-0.1,0.1-0.2,0.1-0.3l0.8-2.1c0,0,0-0.1,0.1-0.1c0,0,0.1,0,0.1,0h0.5L59.7,5.7z"/>
		<path class="st0" d="M62,2c0-0.1,0-0.1,0-0.2c0,0,0-0.1,0.1-0.1c0,0,0.1-0.1,0.1-0.1c0.1,0,0.2,0,0.3,0c0.1,0,0.2,0.1,0.2,0.2
			c0,0.1,0,0.1,0,0.2c0,0.1,0,0.1,0,0.2c-0.1,0.2-0.3,0.3-0.5,0.2c0,0-0.1,0-0.1-0.1c0,0-0.1-0.1-0.1-0.1C62,2.1,62,2,62,2z M62,4.4
			c0-0.1,0-0.1,0-0.2c0,0,0-0.1,0.1-0.1C62.2,4,62.4,3.9,62.5,4c0,0,0.1,0.1,0.1,0.1c0,0,0.1,0.1,0.1,0.1c0,0.1,0,0.1,0,0.2
			c0,0.1,0,0.1,0,0.2c0,0-0.1,0.1-0.1,0.1c-0.1,0.1-0.3,0.2-0.5,0.1c0,0-0.1-0.1-0.1-0.1c0,0-0.1-0.1-0.1-0.1C62,4.5,62,4.5,62,4.4z
			"/>
	</g>
</g>
</svg>
