<?xml version="1.0" encoding="utf-8"?>
<!-- Generator: Adobe Illustrator 23.0.1, SVG Export Plug-In . SVG Version: 6.00 Build 0)  -->
<svg version="1.1" id="Layer_1" xmlns="http://www.w3.org/2000/svg" xmlns:xlink="http://www.w3.org/1999/xlink" x="0px" y="0px"
	 viewBox="0 0 20 20" style="enable-background:new 0 0 20 20;" xml:space="preserve">
<style type="text/css">
	.st0{opacity:0.43;}
	.st1{fill:#FFFFFF;stroke:#FFFFFF;stroke-width:0.75;stroke-miterlimit:10;}
</style>
<g>
	<g id="Layer_1-2">
		<g class="st0">
			<path class="st1" d="M15.15,19.65H7.57c-1.19-0.06-2.11-1.05-2.08-2.24V5.24C5.46,4.06,6.38,3.06,7.57,3h7.62
				c1.19,0.06,2.11,1.05,2.08,2.24v12.14C17.28,18.58,16.35,19.58,15.15,19.65z M7.57,4.06C6.94,4.09,6.46,4.62,6.49,5.24v12.14
				c0,0.61,0.47,1.12,1.08,1.15h7.62c0.63-0.03,1.12-0.56,1.09-1.19V5.24c0.03-0.63-0.46-1.16-1.09-1.19H7.57z"/>
			<path class="st1" d="M4.1,14.8H3.11V2.63C3.08,1.44,4,0.45,5.19,0.39h7.64v1.09H5.19C4.57,1.51,4.09,2.02,4.1,2.63V14.8z"/>
		</g>
	</g>
</g>
</svg>
