<?xml version="1.0" encoding="utf-8"?>
<!-- Generator: Adobe Illustrator 23.0.1, SVG Export Plug-In . SVG Version: 6.00 Build 0)  -->
<svg version="1.1" id="Layer_1" xmlns="http://www.w3.org/2000/svg" xmlns:xlink="http://www.w3.org/1999/xlink" x="0px" y="0px"
	 viewBox="0 0 20 20" style="enable-background:new 0 0 20 20;" xml:space="preserve">
<style type="text/css">
	.st0{fill:#FFFFFF;}
</style>
<path class="st0" d="M19.98,6.8c0-0.02-0.01-0.05-0.02-0.07c0-0.01-0.01-0.03-0.01-0.04c-0.01-0.02-0.01-0.04-0.02-0.06
	c-0.01-0.01-0.01-0.03-0.02-0.04c-0.01-0.02-0.02-0.04-0.03-0.06c-0.01-0.01-0.02-0.03-0.02-0.04c-0.01-0.02-0.02-0.04-0.04-0.05
	c-0.01-0.01-0.02-0.02-0.03-0.04s-0.03-0.03-0.04-0.05c-0.01-0.01-0.02-0.02-0.03-0.03c-0.02-0.01-0.03-0.03-0.05-0.04
	c-0.01-0.01-0.03-0.02-0.04-0.03l-0.01-0.01l-9.14-6.09c-0.29-0.19-0.66-0.19-0.95,0L0.38,6.24c-0.01,0-0.01,0.01-0.01,0.01
	C0.35,6.26,0.34,6.27,0.33,6.28C0.31,6.29,0.3,6.3,0.28,6.32C0.27,6.33,0.26,6.34,0.25,6.35C0.23,6.37,0.22,6.38,0.2,6.4
	C0.19,6.41,0.18,6.42,0.17,6.44C0.16,6.45,0.15,6.47,0.14,6.49C0.13,6.5,0.12,6.52,0.11,6.53C0.1,6.55,0.09,6.57,0.08,6.59
	c0,0.01-0.01,0.02-0.01,0.04C0.06,6.65,0.05,6.67,0.04,6.69c0,0.01-0.01,0.03-0.01,0.04C0.02,6.75,0.02,6.78,0.01,6.8
	C0.01,6.81,0,6.82,0,6.84c0,0.04,0,0.07,0,0.11v6.09c0,0.04,0,0.08,0.01,0.11c0,0.01,0.01,0.02,0.01,0.04
	c0,0.02,0.01,0.05,0.02,0.07c0,0.01,0.01,0.03,0.01,0.04c0.01,0.02,0.01,0.04,0.02,0.06c0.01,0.01,0.01,0.03,0.02,0.04
	c0.01,0.02,0.02,0.04,0.03,0.06c0.01,0.01,0.02,0.03,0.02,0.04c0.01,0.02,0.02,0.04,0.04,0.05c0.01,0.01,0.02,0.02,0.03,0.04
	c0.01,0.02,0.03,0.03,0.04,0.05c0.01,0.01,0.02,0.02,0.04,0.03c0.02,0.01,0.03,0.03,0.05,0.04c0.01,0.01,0.03,0.02,0.04,0.03
	c0.01,0,0.01,0.01,0.01,0.01l9.14,6.1C9.67,19.95,9.83,20,10,20s0.33-0.05,0.48-0.14l9.14-6.09c0.01,0,0.01-0.01,0.01-0.01
	c0.01-0.01,0.03-0.02,0.04-0.03c0.02-0.01,0.03-0.03,0.05-0.04c0.01-0.01,0.02-0.02,0.03-0.03c0.01-0.02,0.03-0.03,0.04-0.05
	c0.01-0.01,0.02-0.02,0.03-0.04c0.01-0.02,0.02-0.03,0.04-0.05c0.01-0.01,0.02-0.03,0.02-0.04c0.01-0.02,0.02-0.04,0.03-0.06
	c0.01-0.01,0.01-0.03,0.02-0.04c0.01-0.02,0.02-0.04,0.02-0.06c0-0.01,0.01-0.03,0.01-0.04c0.01-0.02,0.01-0.05,0.02-0.07
	c0-0.01,0.01-0.02,0.01-0.04c0-0.04,0.01-0.07,0.01-0.11V6.95c0-0.04,0-0.08-0.01-0.11C19.99,6.83,19.99,6.82,19.98,6.8L19.98,6.8
	L19.98,6.8z M10,12.03L6.96,10L10,7.97L13.04,10L10,12.03L10,12.03z M9.14,6.47l-3.73,2.5l-3-2.02l6.73-4.49V6.47L9.14,6.47z
	 M3.87,10l-2.15,1.44V8.56L3.87,10L3.87,10z M5.41,11.03l3.73,2.49v4.01l-6.73-4.49L5.41,11.03L5.41,11.03L5.41,11.03z M10.86,13.53
	l3.73-2.49l3.01,2.01l-6.73,4.49v-4.01H10.86z M16.13,10l2.15-1.44v2.88L16.13,10L16.13,10L16.13,10z M14.59,8.97l-3.73-2.49V2.47
	l6.73,4.49L14.59,8.97L14.59,8.97z"/>
</svg>
