<svg xmlns="http://www.w3.org/2000/svg" viewBox="0 0 18.66 25.5"><defs><style>.cls-1{opacity:0.43;}.cls-2{fill:#75888e;}</style></defs><title>copy</title><g id="Layer_2" data-name="Layer 2"><g id="Layer_1-2" data-name="Layer 1"><g class="cls-1"><path class="cls-2" d="M15.84,25.5H5.69a2.92,2.92,0,0,1-2.78-3V6.22a2.92,2.92,0,0,1,2.78-3H15.88a2.92,2.92,0,0,1,2.78,3V22.46A3,3,0,0,1,15.84,25.5ZM5.69,4.63A1.53,1.53,0,0,0,4.24,6.22V22.46A1.53,1.53,0,0,0,5.69,24H15.88a1.53,1.53,0,0,0,1.46-1.59V6.22a1.53,1.53,0,0,0-1.46-1.59Z"/><path class="cls-2" d="M1.32,19.28H0V3A2.92,2.92,0,0,1,2.78,0H13V1.46H2.78A1.53,1.53,0,0,0,1.32,3Z"/></g></g></g></svg>