<svg xmlns="http://www.w3.org/2000/svg" viewBox="0 0 500 500"><defs><style>.cls-1{fill:#fda428;}.cls-2{fill:#fff;}</style></defs><title>gh_logo</title><g id="Layer_2" data-name="Layer 2"><g id="Layer_1-2" data-name="Layer 1"><rect class="cls-1" width="500" height="500"/><path class="cls-2" d="M414.79,332.92l.33-.65a8.73,8.73,0,0,0-3.23-11.51,34.57,34.57,0,0,1-16.75-31.89A8.7,8.7,0,0,0,392.4,282a8.57,8.57,0,0,0-7-2.23,34.8,34.8,0,0,1-20.75-3.67,34.26,34.26,0,0,1-13.08-12.24,35.39,35.39,0,0,1,.51-37.77,8.85,8.85,0,0,0,1.06-7.36,8.63,8.63,0,0,0-4.93-5.47c-1-.4-1.92-.85-2.84-1.34A34.72,34.72,0,0,1,327,182.35a35.66,35.66,0,0,1,19.19-32.66,8.88,8.88,0,0,0,4.57-5.88,8.75,8.75,0,0,0-1.53-7.25,35,35,0,0,1-3.72-36,8.72,8.72,0,0,0-3.66-11.36l-.62-.34-1.46-.79C251.63,41.52,141.57,76.3,94.41,165.6S80.57,365.4,168.69,411.94,366.86,423.7,414,334.4C414.28,333.91,414.53,333.42,414.79,332.92ZM261.05,414.83a160.78,160.78,0,0,1-84.16-18.43c-79.66-42.08-109.79-142-67.15-222.71A166.16,166.16,0,0,1,230.87,86.92a161.12,161.12,0,0,1,95.94,14.27,52.53,52.53,0,0,0,3.54,38,53.53,53.53,0,0,0-20.74,43.87,52.14,52.14,0,0,0,23.49,42,53,53,0,0,0,3.69,48.21,51.4,51.4,0,0,0,41.28,24.28,51.76,51.76,0,0,0,18,33.47A166,166,0,0,1,261.05,414.83Z"/><path class="cls-2" d="M256.5,67.41A183.63,183.63,0,0,0,94.41,165.6c-47.16,89.29-13.84,199.8,74.27,246.34a177.72,177.72,0,0,0,83.24,20.65A183.63,183.63,0,0,0,414,334.4c.26-.49.51-1,.76-1.48l.33-.65a8.73,8.73,0,0,0-3.23-11.51,34.57,34.57,0,0,1-16.75-31.89A8.7,8.7,0,0,0,392.4,282a8.56,8.56,0,0,0-5.85-2.3,8.65,8.65,0,0,0-1.16.08,34.12,34.12,0,0,1-4.58.31,34.8,34.8,0,0,1-16.17-4,34.26,34.26,0,0,1-13.08-12.24,35.39,35.39,0,0,1,.51-37.77,8.85,8.85,0,0,0,1.06-7.37,8.63,8.63,0,0,0-4.93-5.47c-1-.4-1.92-.85-2.84-1.34A34.72,34.72,0,0,1,327,182.35a35.66,35.66,0,0,1,19.19-32.66,8.88,8.88,0,0,0,4.57-5.88,8.75,8.75,0,0,0-1.53-7.25,35,35,0,0,1-3.72-36,8.72,8.72,0,0,0-3.66-11.36l-.62-.34-1.46-.79A177.73,177.73,0,0,0,256.5,67.41Zm-4.35,347.67a160.66,160.66,0,0,1-75.26-18.67c-79.66-42.08-109.79-142-67.15-222.71A166.16,166.16,0,0,1,230.87,86.92a163.53,163.53,0,0,1,25.42-2,160.57,160.57,0,0,1,70.52,16.27,52.53,52.53,0,0,0,3.54,38,53.53,53.53,0,0,0-20.74,43.87,52.14,52.14,0,0,0,23.49,42,53,53,0,0,0,3.69,48.21,51.4,51.4,0,0,0,41.28,24.28,51.76,51.76,0,0,0,18,33.47,166,166,0,0,1-135,83.81q-4.44.24-8.91.24Z"/></g></g></svg>