<?xml version="1.0" encoding="utf-8"?>
<!-- Generator: Adobe Illustrator 21.1.0, SVG Export Plug-In . SVG Version: 6.00 Build 0)  -->
<svg version="1.1" id="Layer_1" xmlns="http://www.w3.org/2000/svg" xmlns:xlink="http://www.w3.org/1999/xlink" x="0px" y="0px"
	 width="52.2px" height="62.6px" viewBox="0 0 52.2 62.6" style="enable-background:new 0 0 52.2 62.6;" xml:space="preserve">
<style type="text/css">
	.st0{fill:#FDA428;}
</style>
<title>icon-code</title>
<g id="Layer_2">
	<g id="Layer_1-2">
		<path class="st0" d="M27.5,39.6v2.5c0,0.8-0.3,1.6-0.9,2.2L25,45.9l1.6,1.7c0.6,0.6,1,1.4,0.9,2.2v2.4c0,2.3,1.9,4.2,4.2,4.2h1.7
			v-2.1h-1.6c-1.2,0-2.1-0.9-2.1-2.1l0,0v-2.5c0-1.4-0.6-2.7-1.6-3.7L28,45.9l0.1-0.2c1-0.9,1.6-2.3,1.6-3.7v-2.4
			c0-1.2,0.9-2.1,2.1-2.1l0,0h1.7v-2h-1.7C29.4,35.5,27.6,37.3,27.5,39.6z"/>
		<path class="st0" d="M43.4,42v-2.4c0-2.3-1.9-4.2-4.2-4.2h-1.7v2.1h1.7c1.2,0,2.1,0.9,2.1,2.1l0,0v2.6c0,1.4,0.6,2.7,1.6,3.7
			L43,46l-0.1,0.1c-1,0.9-1.6,2.3-1.6,3.7v2.4c0,1.2-0.9,2.1-2.1,2.1l0,0h-1.7v2.1h1.7c2.3,0,4.2-1.9,4.2-4.2v-2.5
			c0-0.8,0.3-1.6,0.9-2.2l1.6-1.5l-1.6-1.7C43.7,43.7,43.4,42.8,43.4,42z"/>
		<path d="M42.2,0H4.2v12.5H0v18.8h4.2v31.3h48V13.2L42.2,0z M42.8,4.2l6.2,8.4h-6.2V4.2z M2.1,14.6h24v14.6h-24L2.1,14.6z
			 M6.3,60.5V31.3h21.9V12.5H6.3V2.1h34.4v12.5h9.4v45.9H6.3z"/>
		<path d="M10.4,24c0,0.6-0.4,1-1,1s-1-0.4-1-1v-1H6.3v1c0,1.7,1.3,3.1,3,3.1c0,0,0.1,0,0.1,0c1.7,0,3.1-1.3,3.1-3c0,0,0-0.1,0-0.1
			v-7.3h-2.1V24z"/>
		<path d="M17.7,18.8h1c0.6,0,1,0.4,1,1h2.1c0-1.7-1.3-3.1-3-3.1c0,0-0.1,0-0.1,0h-1c-1.7,0-3.1,1.4-3.1,3.1c0,1.7,1.4,3.1,3.1,3.1
			h1c0.6,0,1,0.5,1,1s-0.5,1-1,1h-1c-0.6,0-1-0.4-1-1h-2.1c0,1.7,1.3,3.1,3,3.1c0,0,0.1,0,0.1,0h1c1.7,0,3.1-1.4,3.1-3.1
			c0-1.7-1.4-3.1-3.1-3.1h-1c-0.6,0-1-0.5-1-1S17.2,18.8,17.7,18.8z"/>
	</g>
</g>
</svg>
