<?xml version="1.0" encoding="utf-8"?>
<!-- Generator: Adobe Illustrator 21.1.0, SVG Export Plug-In . SVG Version: 6.00 Build 0)  -->
<svg version="1.1" id="Layer_1" xmlns="http://www.w3.org/2000/svg" xmlns:xlink="http://www.w3.org/1999/xlink" x="0px" y="0px"
	 width="72px" height="62.4px" viewBox="0 0 72 62.4" style="enable-background:new 0 0 72 62.4;" xml:space="preserve">
<style type="text/css">
	.st0{fill:#FDA428;}
</style>
<title>icon-design</title>
<g id="Layer_2">
	<g id="Layer_1-2">
		<path d="M71.5,14.4c-1-1-2.4-0.2-3,0.1c-10.6,6.2-20.8,16.1-27.5,23.2l-1.6,1.7c-3.3,3.6-5.9,6.6-7.3,8.4h-0.4
			c-1.8,0-3.5,0.8-4.7,2.1c-3.4,3.4-6.9,3.9-12.1,4.3l-2.6,0.2l1.9,1.8c3.8,3.7,8.8,5.9,14.1,6.1l0,0c3,0.1,5.9-1,8.2-3
			c1.3-1.2,2.1-2.9,2.1-4.7c0-0.3,0-0.6-0.1-0.8c2-1.6,4.8-4.1,8.1-7.2l1.7-1.7c7.2-6.8,17-17,23.2-27.5
			C71.7,16.8,72.5,15.5,71.5,14.4z M34.6,57.7c-1.8,1.6-4.1,2.4-6.5,2.3c-3.8-0.1-7.4-1.4-10.4-3.7c4.2-0.5,7.6-1.5,10.8-4.7
			c1.4-1.7,4-1.9,5.6-0.4c0.1,0.1,0.3,0.3,0.4,0.4c1.7,1.4,1.9,3.9,0.5,5.6C35,57.3,34.8,57.5,34.6,57.7L34.6,57.7z M37.5,51.5
			c-0.3-0.5-0.7-1-1.2-1.5c-0.5-0.5-1.2-1-1.8-1.4c1.4-1.6,3.5-4.1,6-6.9c1.7,0.8,3,2.1,3.8,3.8C41.6,48,39.2,50,37.5,51.5
			L37.5,51.5z M46.6,43.3L46,43.9c-0.9-1.6-2.3-3-3.9-3.9l0.5-0.6c6.5-6.9,16.3-16.3,26.3-22.4C62.9,27,53.5,36.8,46.6,43.3
			L46.6,43.3z"/>
		<path class="st0" d="M10.3,17.2c0,3.2,2.6,5.8,5.8,5.8s5.8-2.6,5.8-5.8s-2.6-5.8-5.8-5.8l0,0C12.9,11.4,10.3,14,10.3,17.2z
			 M19.6,17.2c0,1.9-1.6,3.5-3.5,3.5c-1.9,0-3.5-1.6-3.5-3.5c0-1.9,1.6-3.5,3.5-3.5c0,0,0,0,0,0C18.1,13.8,19.6,15.3,19.6,17.2
			L19.6,17.2z"/>
		<path class="st0" d="M46.3,23c3.2,0,5.8-2.6,5.8-5.8s-2.6-5.8-5.8-5.8s-5.8,2.6-5.8,5.8S43.1,23,46.3,23L46.3,23z M46.3,13.8
			c1.9,0,3.5,1.6,3.5,3.5s-1.6,3.5-3.5,3.5s-3.5-1.6-3.5-3.5l0,0C42.9,15.3,44.4,13.8,46.3,13.8z"/>
		<path class="st0" d="M37,12c0-3.2-2.6-5.8-5.8-5.8s-5.8,2.6-5.8,5.8c0,3.2,2.6,5.8,5.8,5.8c0,0,0,0,0,0C34.4,17.8,37,15.2,37,12z
			 M31.2,15.5c-1.9,0-3.5-1.6-3.4-3.5s1.6-3.5,3.5-3.4c1.9,0,3.4,1.6,3.4,3.5C34.7,13.9,33.2,15.5,31.2,15.5
			C31.3,15.5,31.2,15.5,31.2,15.5L31.2,15.5z"/>
		<path d="M29.3,0C18.8-0.2,9.2,3,4.3,8.2s-4.8,9.7-3.8,12.5c2.3,6.6,12,11.9,25.9,14.2c0.6,0.1,1.2,0.4,1.5,0.9
			c0.4,0.5,0.5,1.2,0.3,1.8c-0.5,2.4-0.8,4.8-0.8,7.2c0,0.6,0.5,1.2,1.2,1.1c0,0,0,0,0,0l0,0c0.6,0,1.2-0.5,1.2-1.2
			c0-2.3,0.3-4.5,0.8-6.8c0.3-1.2,0-2.6-0.7-3.6c-0.7-1-1.8-1.7-3.1-1.9C13.9,30.5,4.7,25.7,2.7,20c-1.1-3.2,0-6.6,3.3-10.2
			c4.4-4.7,13.5-7.7,23.3-7.5c12.2,0.2,23.3,5.2,30.5,13.6c0.4,0.5,1.1,0.6,1.6,0.2c0.5-0.4,0.6-1.1,0.2-1.6c0,0,0,0,0-0.1
			C54,5.5,42.2,0.2,29.3,0z"/>
	</g>
</g>
</svg>
