<?xml version="1.0" encoding="utf-8"?>
<!-- Generator: Adobe Illustrator 21.1.0, SVG Export Plug-In . SVG Version: 6.00 Build 0)  -->
<svg version="1.1" id="Layer_1" xmlns="http://www.w3.org/2000/svg" xmlns:xlink="http://www.w3.org/1999/xlink" x="0px" y="0px"
	 width="342px" height="222.9px" viewBox="0 0 342 222.9" style="enable-background:new 0 0 342 222.9;" xml:space="preserve">
<style type="text/css">
	.st0{fill:#EDEDED;}
	.st1{fill:#FC8048;}
	.st2{fill:#FDDA31;}
	.st3{opacity:0.4;}
	.st4{fill:#FC9026;}
	.st5{fill:#FFFFFF;}
	.st6{fill:#050505;}
</style>
<title>icon-coffee</title>
<g id="Layer_2">
	<g id="Layer_1-2">
		<g id="Page-1">
			<g id="Artboard-2">
				<g id="Illo">
					<g id="Oval">
						<circle class="st0" cx="291.6" cy="35" r="6.2"/>
					</g>
					<g id="Oval-2">
						<path class="st1" d="M35.1,31.8c-3.4,0-6.2-2.8-6.2-6.2s2.8-6.2,6.2-6.2s6.2,2.8,6.2,6.2l0,0C41.3,29,38.5,31.8,35.1,31.8z
							 M35.1,22.3c-1.8,0-3.3,1.5-3.3,3.3c0,1.8,1.5,3.3,3.3,3.3c1.8,0,3.3-1.5,3.3-3.3S36.9,22.3,35.1,22.3
							C35.1,22.3,35.1,22.3,35.1,22.3z"/>
					</g>
					<g id="Oval-3">
						<path class="st2" d="M6.2,175.2c-3.4,0-6.2-2.8-6.2-6.2c0-3.4,2.8-6.2,6.2-6.2s6.2,2.8,6.2,6.2
							C12.3,172.5,9.6,175.2,6.2,175.2z M6.2,165.8c-1.8,0-3.3,1.5-3.3,3.3c0,1.8,1.5,3.3,3.3,3.3s3.3-1.5,3.3-3.3l0,0
							C9.4,167.3,8,165.8,6.2,165.8z"/>
					</g>
					<g id="Page-1-2" class="st3">
						<g id="Fill-1">
							<polygon class="st4" points="79.9,109.8 44.9,109.6 62.1,217.8 65.9,217.8 100.2,217.8 104,217.8 121.1,109.6 							"/>
						</g>
						<g id="Fill-2">
							<polygon class="st2" points="79.9,109.8 44.9,109.6 62.1,217.8 65.9,217.8 91.5,217.8 95.2,217.8 112.4,109.6 							"/>
						</g>
						<g id="Fill-3">
							<polygon class="st5" points="34.9,109.6 125.2,109.6 125.2,99.6 34.9,99.6 							"/>
						</g>
						<g id="Stroke-4">
							<path d="M127.5,111.9H32.6V97.2h94.9L127.5,111.9z M37.3,107.2h85.6v-5.3H37.3V107.2z"/>
						</g>
						<g id="Fill-6">
							<polygon class="st5" points="107.7,83.4 86.2,83.4 73.3,83.4 51.8,83.4 45.2,98.3 73.3,98.3 86.2,98.3 114.3,98.3 							"/>
						</g>
						<g id="Group-11">
							<g id="Stroke-7">
								<path class="st6" d="M117.8,100.7H41.7L50.3,81h59L117.8,100.7z M48.8,96h61.9l-4.5-10.3H53.3L48.8,96z"/>
							</g>
							<g id="Stroke-9">
								<path d="M106,220.2H53.9l-17.9-113l44,0.2l44-0.2L106,220.2z M57.9,215.5H102l16.4-103.6l-38.5,0.2l-38.5-0.2L57.9,215.5z"
									/>
							</g>
						</g>
						<g id="Fill-12">
							<polygon class="st5" points="122.4,140.1 81.2,140.1 78.3,140.1 37.1,140.1 44.8,183.2 79.8,182.8 114.7,183.2 							"/>
						</g>
						<g id="Stroke-13">
							<path d="M116.6,185.6l-36.9-0.4l-36.9,0.4l-8.5-47.8h90.9L116.6,185.6z M79.7,180.5l33,0.4l6.9-38.4H39.9l6.9,38.4
								L79.7,180.5z"/>
						</g>
					</g>
					<g id="Page-1-3" class="st3">
						<g id="Fill-1-2">
							<polygon class="st4" points="266.9,109.8 231.9,109.6 249.1,217.8 252.8,217.8 287.1,217.8 290.9,217.8 308.1,109.6 							
								"/>
						</g>
						<g id="Fill-2-2">
							<polygon class="st2" points="266.9,109.8 231.9,109.6 249.1,217.8 252.8,217.8 278.4,217.8 282.1,217.8 299.3,109.6 							
								"/>
						</g>
						<g id="Fill-3-2">
							<polygon class="st5" points="221.9,109.6 312.1,109.6 312.1,99.6 221.9,99.6 							"/>
						</g>
						<g id="Stroke-4-2">
							<path d="M314.5,111.9h-95V97.2h94.9L314.5,111.9z M224.2,107.2h85.6v-5.3h-85.6V107.2z"/>
						</g>
						<g id="Fill-6-2">
							<polygon class="st5" points="294.6,83.4 273.1,83.4 260.3,83.4 238.7,83.4 232.2,98.3 260.3,98.3 273.1,98.3 301.2,98.3 
															"/>
						</g>
						<g id="Group-11-2">
							<g id="Stroke-7-2">
								<path class="st6" d="M304.8,100.7h-76.2l8.6-19.7h59L304.8,100.7z M235.8,96h61.9l-4.5-10.3h-52.8L235.8,96z"/>
							</g>
							<g id="Stroke-9-2">
								<path d="M292.9,220.2h-52.1l-17.9-113l44,0.2l44-0.2L292.9,220.2z M244.8,215.5h44.1l16.4-103.6l-38.5,0.2l-38.5-0.2
									L244.8,215.5z"/>
							</g>
						</g>
						<g id="Fill-12-2">
							<polygon class="st5" points="309.3,140.1 268.2,140.1 265.2,140.1 224.1,140.1 231.8,183.2 266.7,182.8 301.6,183.2 							
								"/>
						</g>
						<g id="Stroke-13-2">
							<path d="M303.6,185.6l-36.9-0.4l-36.9,0.4l-8.5-47.8h90.9L303.6,185.6z M266.7,180.5l33,0.4l6.9-38.4h-79.7l6.9,38.4
								L266.7,180.5z"/>
						</g>
					</g>
					<g id="Page-1-4">
						<g id="Fill-1-3">
							<polygon class="st4" points="172.9,46.1 117,45.7 144.4,219.2 150.4,219.2 205.4,219.2 211.4,219.2 238.9,45.7 							"/>
						</g>
						<g id="Fill-2-3">
							<polygon class="st2" points="172.9,46.1 117,45.7 144.4,219.2 150.4,219.2 191.4,219.2 197.4,219.2 224.9,45.7 							"/>
						</g>
						<g id="Fill-3-3">
							<polygon class="st5" points="101,45.7 245.4,45.7 245.4,29.7 101,29.7 							"/>
						</g>
						<g id="Stroke-4-3">
							<path d="M249.1,49.5H97.2V26h151.9V49.5z M104.7,42h136.9v-8.5H104.7V42z"/>
						</g>
						<g id="Fill-6-3">
							<polygon class="st5" points="217.4,3.8 182.9,3.8 162.4,3.8 127.9,3.8 117.5,27.7 162.4,27.7 182.9,27.7 227.9,27.7 							
								"/>
						</g>
						<g id="Group-11-3">
							<g id="Stroke-7-3">
								<path class="st6" d="M233.6,31.5H111.7L125.5,0h94.4L233.6,31.5z M123.2,24h99l-7.2-16.5h-84.6L123.2,24z"/>
							</g>
							<g id="Stroke-9-3">
								<path d="M214.6,222.9h-83.4L102.6,42l70.3,0.4l70.4-0.4L214.6,222.9z M137.6,215.4h70.6l26.3-165.9l-61.6,0.3l0,0l-61.6-0.3
									L137.6,215.4z"/>
							</g>
						</g>
						<g id="Fill-12-3">
							<polygon class="st5" points="240.9,94.7 175,94.7 170.3,94.7 104.5,94.7 116.8,163.7 172.7,163.1 228.6,163.7 							"/>
						</g>
						<g id="Stroke-13-3">
							<path d="M231.7,167.5l-59-0.6l-59,0.6L100,91h145.4L231.7,167.5z M108.9,98.5l11,61.4l52.8-0.6l0,0l52.7,0.6l11-61.4H108.9z"
								/>
						</g>
					</g>
					<g id="Combined-Shape">
						<path class="st2" d="M337.6,189.7v-2.2c0-1.2-1-2.2-2.2-2.2l0,0h-0.7c-1.2,0-2.2,1-2.2,2.2c0,0,0,0,0,0l0,0v2.2h-2.2
							c-1.2,0-2.2,1-2.2,2.2c0,0,0,0,0,0l0,0v0.7l0,0c0,1.2,1,2.2,2.2,2.2l0,0h2.2v2.2c0,1.2,1,2.2,2.2,2.2l0,0h0.7
							c1.2,0,2.2-1,2.2-2.2c0,0,0,0,0,0v-2.2h2.2c1.2,0,2.2-1,2.2-2.2c0,0,0,0,0,0v-0.7c0-1.2-1-2.2-2.2-2.2l0,0L337.6,189.7z"/>
					</g>
				</g>
			</g>
		</g>
	</g>
</g>
</svg>
