<?xml version="1.0" encoding="utf-8"?>
<!-- Generator: Adobe Illustrator 21.1.0, SVG Export Plug-In . SVG Version: 6.00 Build 0)  -->
<svg version="1.1" id="Layer_1" xmlns="http://www.w3.org/2000/svg" xmlns:xlink="http://www.w3.org/1999/xlink" x="0px" y="0px"
	 width="66.8px" height="71.2px" viewBox="0 0 66.8 71.2" style="enable-background:new 0 0 66.8 71.2;" xml:space="preserve">
<style type="text/css">
	.st0{fill:#FDA428;}
	.st1{stroke:#000000;stroke-width:0.5;stroke-miterlimit:10;}
</style>
<title>icon-coin</title>
<g id="Layer_2">
	<g id="Layer_1-2">
		<path class="st0" d="M35.6,12.3c-0.5-0.5-1.1-0.9-1.8-1.1c-0.8-0.2-1.6-0.4-2.4-0.5V7.4c0.6,0,1.1,0.2,1.7,0.4
			c0.5,0.3,0.9,0.9,1,1.5l1.7-0.1c0-0.6-0.3-1.2-0.7-1.6c-0.5-0.5-1.1-0.9-1.8-1.1c-0.6-0.2-1.2-0.3-1.9-0.3v-1
			c0-0.4-0.3-0.7-0.7-0.7c0,0,0,0,0,0l0,0h-0.1c-0.3,0.1-0.5,0.4-0.5,0.7v1c-0.6,0-1.3,0.2-1.9,0.3c-0.7,0.2-1.2,0.5-1.7,1
			C26.2,7.9,26,8.5,25.9,9c0,0.5,0.2,0.9,0.5,1.3c0.4,0.4,0.9,0.8,1.5,1c0.7,0.3,1.5,0.4,2.3,0.6v3.7c-0.4,0-0.7-0.1-1.1-0.2
			c-0.5-0.1-1-0.4-1.4-0.8c-0.4-0.3-0.6-0.8-0.7-1.3l-1.7,0.1c0,0.7,0.3,1.3,0.7,1.8c0.5,0.6,1.2,1,2,1.2c0.6,0.2,1.3,0.3,2,0.4v1
			c0,0.4,0.2,0.7,0.6,0.8c0.4,0,0.7-0.2,0.8-0.6c0-0.1,0-0.1,0-0.2v-0.9c0.8,0,1.6-0.1,2.3-0.4c0.7-0.2,1.3-0.6,1.8-1.1
			c0.4-0.4,0.6-1,0.6-1.5C36.2,13.3,36,12.7,35.6,12.3z M30.1,10.5c-0.7-0.1-1.4-0.3-2-0.6c-0.3-0.2-0.5-0.5-0.5-0.9
			c0-0.5,0.3-0.9,0.8-1.1c0.5-0.3,1.1-0.4,1.7-0.5h0.1L30.1,10.5z M34.1,14.8c-0.3,0.3-0.7,0.5-1.2,0.6c-0.5,0.1-1,0.2-1.5,0.2v-3.5
			l0,0c0.6,0.1,1.2,0.2,1.4,0.3c0.5,0.1,0.9,0.3,1.2,0.6c0.2,0.2,0.4,0.5,0.4,0.9C34.5,14.2,34.3,14.6,34.1,14.8L34.1,14.8z"/>
		<path class="st1" d="M30.7,0.2C24.8,0.1,19,1.3,13.6,3.7c-4.3,2.1-7.3,5.1-7.4,8.6c0,0.1,0,0.1,0,0.2v8.8c0.1,2.3,1.2,4.4,2.9,5.8
			c-0.5,0.2-1,0.4-1.5,0.6c-4.4,2.1-7.3,5.1-7.4,8.6l0,0c0,0.1,0,0.1,0,0.2v8.8c0,3.6,2.9,6.6,7.3,8.8c2.3,1.1,4.7,1.9,7.2,2.4v2.1
			c0,3.6,2.9,6.6,7.4,8.8c5.4,2.4,11.3,3.6,17.2,3.5c5.9,0.1,11.7-1.1,17.1-3.5c4.4-2.2,7.4-5.2,7.4-8.8v-8.8c0-0.1,0-0.2,0-0.2l0,0
			l0,0c-0.2-2.9-2.3-5.5-5.6-7.5l0.9-0.4c4.4-2.2,7.4-5.2,7.4-8.8V24c0-0.1,0-0.2,0-0.2l0,0v0c-0.2-3.4-3-6.4-7.3-8.4
			c-1.2-0.6-2.5-1.1-3.9-1.5v-1.2c0-0.1,0-0.2,0-0.2l0,0v-0.1c-0.2-3.4-3-6.4-7.3-8.4C42.6,1.3,36.7,0.1,30.7,0.2z M30.7,1.6
			c5.7-0.1,11.4,1,16.6,3.3c4.2,2,6.6,4.7,6.6,7.5S51.5,18,47.3,20c-5.2,2.3-10.9,3.4-16.6,3.3c-5.7,0.1-11.3-1-16.5-3.3
			c-4.2-2-6.6-4.7-6.6-7.5S10,7,14.2,4.9C19.4,2.6,25,1.5,30.7,1.6z M55.3,15.1c1.1,0.4,2.2,0.8,3.3,1.3c4.2,2,6.6,4.7,6.6,7.6
			s-2.4,5.5-6.6,7.6C53.3,33.8,47.7,35,42,34.8c-3.6,0-7.2-0.4-10.8-1.3c5.7,0.1,11.4-1.1,16.7-3.5c4.4-2.1,7.4-5.2,7.4-8.8V15.1z
			 M7.6,16.5c1.6,2.1,3.6,3.7,6,4.8c5.4,2.4,11.2,3.6,17.1,3.5c5.9,0.1,11.8-1.1,17.2-3.5c2.4-1,4.4-2.7,6-4.7v4.8
			c0,2.8-2.4,5.5-6.6,7.5c-5.2,2.3-10.9,3.4-16.6,3.3c-5.7,0.1-11.3-1.1-16.5-3.4c-4.2-2-6.6-4.7-6.6-7.6L7.6,16.5L7.6,16.5z
			 M65.2,28v4.8c0,2.8-2.4,5.5-6.6,7.6c-5.2,2.3-10.9,3.4-16.6,3.3c-5.7,0.1-11.4-1-16.6-3.3c-4.2-2-6.6-4.8-6.6-7.6V32
			c2.4,0.7,4.9,1.1,7.4,1.3c5,2,10.4,2.9,15.8,2.9c5.9,0.1,11.8-1,17.2-3.4C61.6,31.7,63.6,30.1,65.2,28L65.2,28z M10.3,28.1
			c1,0.8,2.2,1.4,3.3,2c1.2,0.6,2.5,1.1,3.8,1.5v1.2c0,3.6,3,6.7,7.4,8.8c4.6,2.1,9.5,3.2,14.5,3.4c-4.7,1.7-9.6,2.5-14.6,2.5
			c-5.7,0.1-11.3-1-16.5-3.3c-4.2-2-6.6-4.7-6.6-7.5S4,31,8.2,29C8.9,28.7,9.6,28.4,10.3,28.1L10.3,28.1z M1.6,40.6
			c1.6,2.1,3.6,3.7,6,4.7c5.4,2.4,11.2,3.6,17.1,3.5c5.9,0.1,11.8-1.1,17.2-3.5l0.7-0.3c1.8,0,3.6-0.1,5.5-0.4v0.8
			c0,0.7-0.2,1.4-0.5,2.1c-0.1,0.2-0.2,0.4-0.2,0.5c-1,1.8-3,3.5-5.9,4.9c-4.5,2-9.3,3.1-14.1,3.3c-0.8,0-1.6,0-2.4,0
			c-5.7,0.2-11.4-0.9-16.6-3.2c-2.9-1.4-4.9-3.1-5.9-5c-0.1-0.2-0.2-0.3-0.2-0.5c-0.3-0.7-0.4-1.4-0.5-2.1
			C1.6,45.4,1.6,40.6,1.6,40.6z M56.7,42.6c3.7,2,5.9,4.5,5.9,7.2c0,2.8-2.4,5.5-6.6,7.5c-5.2,2.3-10.9,3.4-16.6,3.3
			c-5.5,0.1-10.9-0.9-16-3.1h1.4c0.8,0,1.6,0,2.5,0c3.1-0.1,6.1-0.6,9.1-1.3c1.9-0.5,3.8-1.2,5.6-2.1c4.5-2.2,7.4-5.2,7.4-8.8v-0.9
			C51.8,44.1,54.3,43.5,56.7,42.6L56.7,42.6z M62.6,53.8v4.8c0,2.8-2.4,5.5-6.6,7.6c-5.2,2.3-10.9,3.4-16.6,3.3
			c-5.7,0.1-11.4-1-16.6-3.3c-4.2-2-6.6-4.7-6.6-7.5v-1.8c1.3,0.2,2.6,0.5,3.9,0.6c0.7,0.4,1.4,0.8,2.1,1.2
			c5.4,2.4,11.2,3.6,17.1,3.5c5.9,0.1,11.8-1.1,17.2-3.5C58.9,57.6,61,55.9,62.6,53.8L62.6,53.8z"/>
	</g>
</g>
</svg>
