<svg xmlns="http://www.w3.org/2000/svg" viewBox="0 0 19.3 18.69"><defs><style>.cls-1{fill:#fff;}</style></defs><title>icon-export</title><g id="Layer_2" data-name="Layer 2"><g id="Layer_1-2" data-name="Layer 1"><path class="cls-1" d="M9.69,13a.54.54,0,0,1-.53-.53V1.92l-3.6,3.6a.45.45,0,0,1-.35.16.55.55,0,0,1-.38-.16.5.5,0,0,1,0-.74L9.39.26A.54.54,0,0,1,9.74.13a.43.43,0,0,1,.35.14l4.48,4.52a.52.52,0,1,1-.74.74l-3.6-3.6V12.43A.54.54,0,0,1,9.69,13Z"/><path class="cls-1" d="M9.74.25a.31.31,0,0,1,.26.1l4.48,4.52a.4.4,0,1,1-.56.56L10.52,2l-.43-.43V12.43a.4.4,0,1,1-.8,0V1.61L8.86,2,5.46,5.45a.32.32,0,0,1-.25.11.42.42,0,0,1-.3-.12.38.38,0,0,1,0-.56L9.48.35a.42.42,0,0,1,.26-.1m0-.25A.66.66,0,0,0,9.3.17L4.74,4.69a.63.63,0,0,0,0,.91.67.67,0,0,0,.47.2.57.57,0,0,0,.44-.2L9,2.22V12.43a.65.65,0,1,0,1.3,0V2.22l3.39,3.39a.63.63,0,0,0,.91,0,.63.63,0,0,0,0-.91L10.17.17A.56.56,0,0,0,9.74,0Z"/><path class="cls-1" d="M2.91,18.57A2.79,2.79,0,0,1,.13,15.78V11.3a.54.54,0,0,1,.53-.53.54.54,0,0,1,.53.53v4.48a1.74,1.74,0,0,0,1.73,1.73H16.39a1.74,1.74,0,0,0,1.73-1.73V11.3a.54.54,0,0,1,.53-.53.52.52,0,0,1,.53.53v4.48a2.79,2.79,0,0,1-2.79,2.79Z"/><path class="cls-1" d="M18.65,10.9a.39.39,0,0,1,.4.4v4.48a2.67,2.67,0,0,1-2.66,2.66H2.91A2.67,2.67,0,0,1,.25,15.78V11.3a.42.42,0,0,1,.4-.4.42.42,0,0,1,.4.4v4.48a1.86,1.86,0,0,0,1.86,1.86H16.39a1.86,1.86,0,0,0,1.86-1.86V11.3a.42.42,0,0,1,.4-.4m0-.25a.67.67,0,0,0-.65.65v4.48a1.6,1.6,0,0,1-1.61,1.61H2.91A1.6,1.6,0,0,1,1.3,15.78V11.3a.67.67,0,0,0-.65-.65A.67.67,0,0,0,0,11.3v4.48a2.91,2.91,0,0,0,2.91,2.91H16.39a2.91,2.91,0,0,0,2.91-2.91V11.3a.64.64,0,0,0-.65-.65Z"/></g></g></svg>