<?xml version="1.0" encoding="utf-8"?>
<!-- Generator: Adobe Illustrator 21.1.0, SVG Export Plug-In . SVG Version: 6.00 Build 0)  -->
<svg version="1.1" id="Layer_1" xmlns="http://www.w3.org/2000/svg" xmlns:xlink="http://www.w3.org/1999/xlink" x="0px" y="0px"
	 width="30px" height="29.6px" viewBox="0 0 30 29.6" style="enable-background:new 0 0 30 29.6;" xml:space="preserve">
<style type="text/css">
	.st0{fill:#FFFFFF;}
</style>
<title>icon-magic</title>
<g id="Layer_2">
	<g id="Layer_1-2">
		<rect x="14.9" y="11.2" transform="matrix(0.7071 -0.7071 0.7071 0.7071 -3.5808 15.8685)" class="st0" width="5" height="2.2"/>
		
			<rect x="-2.1" y="20.9" transform="matrix(0.7071 -0.7071 0.7071 0.7071 -13.3075 11.8397)" class="st0" width="19.4" height="2.2"/>
		<path class="st0" d="M25.7,3.2L24,4.9c-0.3,0.3-0.3,0.8,0,1.1c0,0,0,0,0,0c0.1,0.1,0.3,0.2,0.5,0.2c0.2,0,0.4-0.1,0.6-0.2l1.7-1.7
			c0.3-0.3,0.3-0.8,0-1.1c0,0,0,0,0,0C26.5,2.9,26,2.9,25.7,3.2z"/>
		<path class="st0" d="M24,17l1.7,1.7c0.1,0.1,0.3,0.2,0.5,0.2c0.2,0,0.4-0.1,0.5-0.2c0.3-0.3,0.3-0.8,0-1.1c0,0,0,0,0,0l-1.7-1.7
			c-0.3-0.3-0.8-0.2-1.1,0.1C23.8,16.3,23.8,16.7,24,17z"/>
		<path class="st0" d="M13.5,6.2c0.2,0,0.4-0.1,0.6-0.2c0.3-0.3,0.3-0.8,0-1.1c0,0,0,0,0,0l-1.7-1.7c-0.3-0.3-0.8-0.3-1.1,0
			C11,3.5,11,4,11.3,4.3l0,0L13,6C13.1,6.1,13.3,6.2,13.5,6.2z"/>
		<path class="st0" d="M26.1,11c0,0.4,0.3,0.8,0.8,0.8l0,0h2.3c0.4,0,0.8-0.3,0.9-0.7c0-0.4-0.3-0.8-0.7-0.9c-0.1,0-0.1,0-0.2,0
			h-2.3C26.4,10.2,26.1,10.6,26.1,11z"/>
		<path class="st0" d="M8.1,11c0,0.4,0.3,0.8,0.8,0.8h2.4c0.4,0,0.8-0.3,0.9-0.7c0-0.4-0.3-0.8-0.7-0.9c-0.1,0-0.1,0-0.2,0H8.9
			C8.5,10.2,8.2,10.6,8.1,11z"/>
		<path class="st0" d="M18.9,4c0.4,0,0.8-0.3,0.8-0.8c0,0,0,0,0,0V0.8c0-0.4-0.3-0.8-0.7-0.9s-0.8,0.3-0.9,0.7c0,0.1,0,0.1,0,0.2
			v2.4C18.1,3.6,18.5,4,18.9,4C18.9,4,18.9,4,18.9,4z"/>
		<path class="st0" d="M18.2,18.8V21c0,0.4,0.3,0.8,0.7,0.9s0.8-0.3,0.9-0.7c0-0.1,0-0.1,0-0.2v-2.2c0-0.4-0.3-0.8-0.7-0.9
			s-0.8,0.3-0.9,0.7C18.2,18.7,18.2,18.7,18.2,18.8z"/>
	</g>
</g>
</svg>
