<?xml version="1.0" encoding="utf-8"?>
<!-- Generator: Adobe Illustrator 21.1.0, SVG Export Plug-In . SVG Version: 6.00 Build 0)  -->
<svg version="1.1" id="Layer_1" xmlns="http://www.w3.org/2000/svg" xmlns:xlink="http://www.w3.org/1999/xlink" x="0px" y="0px"
	 width="191.7px" height="38.7px" viewBox="0 0 191.7 38.7" style="enable-background:new 0 0 191.7 38.7;" xml:space="preserve">
<style type="text/css">
	.st0{fill:#FFFFFF;}
</style>
<title>logo</title>
<g id="Layer_2">
	<g id="Layer_1-2">
		<path class="st0" d="M55,21.2c0-0.2,0.1-0.3,0.2-0.4c0.1-0.1,0.3-0.1,0.4-0.1h1.8c0.2,0,0.3,0.1,0.4,0.2c0.1,0.1,0.2,0.3,0.2,0.4
			c-0.1,0.6-0.2,1.3-0.5,1.8c-0.3,0.6-0.7,1.2-1.2,1.7c-0.6,0.5-1.3,0.9-2,1.2c-1,0.3-2,0.5-3,0.5c-0.9,0-1.9-0.1-2.7-0.4
			c-0.7-0.3-1.4-0.7-2-1.3c-0.6-0.6-1-1.2-1.3-2c-0.3-0.8-0.5-1.6-0.5-2.5c0-0.6,0-1.2,0-1.9c0-0.7,0-1.3,0-1.9
			c0-0.8,0.2-1.7,0.5-2.5c0.3-0.8,0.7-1.4,1.3-2c0.6-0.6,1.3-1,2-1.3c0.9-0.3,1.8-0.5,2.7-0.5c1,0,2,0.1,3,0.5
			c0.7,0.3,1.4,0.7,2,1.2c0.5,0.5,0.9,1,1.2,1.7c0.3,0.6,0.4,1.2,0.5,1.8c0,0.2,0,0.3-0.2,0.4C57.8,16,57.6,16,57.4,16h-1.8
			c-0.2,0-0.3-0.1-0.4-0.1c-0.1-0.1-0.2-0.3-0.2-0.4c0-0.3-0.2-0.6-0.3-0.9c-0.2-0.3-0.4-0.6-0.7-0.8c-0.3-0.2-0.7-0.4-1.1-0.6
			c-0.5-0.1-1-0.2-1.5-0.2c-0.5,0-1,0.1-1.5,0.3c-0.4,0.2-0.8,0.4-1.1,0.7c-0.3,0.3-0.5,0.7-0.7,1.1c-0.2,0.4-0.3,0.9-0.3,1.3
			c0,0.6,0,1.2,0,1.9s0,1.3,0,1.9c0,0.5,0.1,0.9,0.3,1.3c0.1,0.4,0.4,0.8,0.7,1.1c0.3,0.3,0.7,0.6,1.1,0.7c0.5,0.2,1,0.3,1.5,0.3
			c0.5,0,1-0.1,1.5-0.2c0.4-0.1,0.7-0.3,1.1-0.5c0.3-0.2,0.5-0.5,0.7-0.8C54.8,21.8,55,21.5,55,21.2z"/>
		<path class="st0" d="M65.6,14.3c0.8,0,1.5,0.1,2.2,0.4c0.6,0.2,1.2,0.6,1.7,1.1c0.5,0.4,0.9,1,1.2,1.6c0.3,0.6,0.5,1.3,0.5,1.9
			c0,0.2,0,0.3,0,0.5V21c0,0.2,0,0.3,0,0.5c-0.1,0.7-0.2,1.3-0.5,1.9C70.4,24,70,24.6,69.6,25c-0.5,0.4-1.1,0.8-1.7,1
			c-1.4,0.5-3,0.5-4.5,0c-0.6-0.2-1.2-0.6-1.7-1c-0.5-0.4-0.9-1-1.2-1.6c-0.3-0.6-0.5-1.3-0.5-1.9c0-0.1,0-0.3,0-0.5
			c0-0.2,0-0.4,0-0.6c0-0.2,0-0.4,0-0.6s0-0.4,0-0.5c0-0.7,0.2-1.3,0.5-1.9c0.3-0.6,0.7-1.1,1.2-1.6c0.5-0.5,1.1-0.8,1.7-1.1
			C64.1,14.4,64.9,14.3,65.6,14.3z M68.3,19.3c0-0.4-0.1-0.8-0.3-1.1c-0.2-0.3-0.4-0.5-0.6-0.7c-0.2-0.2-0.5-0.3-0.8-0.4
			c-0.6-0.1-1.2-0.1-1.8,0c-0.3,0.1-0.6,0.2-0.8,0.4c-0.3,0.2-0.5,0.4-0.6,0.7c-0.2,0.4-0.3,0.7-0.3,1.1c0,0.1,0,0.3,0,0.5
			s0,0.4,0,0.6s0,0.4,0,0.6s0,0.3,0,0.4c0,0.4,0.1,0.8,0.3,1.1c0.2,0.3,0.4,0.5,0.6,0.7c0.2,0.2,0.5,0.3,0.8,0.4
			c0.6,0.1,1.2,0.1,1.8,0c0.3-0.1,0.6-0.2,0.8-0.4c0.3-0.2,0.5-0.4,0.6-0.7c0.2-0.4,0.3-0.7,0.3-1.1c0-0.1,0-0.3,0-0.4v-1.1
			C68.3,19.7,68.3,19.5,68.3,19.3L68.3,19.3z"/>
		<path class="st0" d="M78.9,14.3c0.8,0,1.5,0.1,2.2,0.4c0.6,0.2,1.2,0.6,1.7,1.1c0.5,0.4,0.9,1,1.2,1.6c0.3,0.6,0.5,1.3,0.5,1.9
			c0,0.2,0,0.3,0,0.5V21c0,0.2,0,0.3,0,0.5c-0.1,0.7-0.3,1.3-0.6,1.9c-0.3,0.6-0.6,1.1-1.1,1.6c-0.5,0.4-1.1,0.8-1.7,1
			c-1.4,0.5-3,0.5-4.5,0c-0.6-0.2-1.2-0.6-1.7-1c-0.5-0.4-0.9-1-1.2-1.6c-0.3-0.6-0.5-1.3-0.5-1.9c0-0.1,0-0.3,0-0.5
			c0-0.2,0-0.4,0-0.6c0-0.2,0-0.4,0-0.6s0-0.4,0-0.5c0-0.7,0.2-1.3,0.5-1.9c0.3-0.6,0.7-1.1,1.2-1.5c0.5-0.5,1.1-0.8,1.7-1.1
			C77.4,14.4,78.2,14.3,78.9,14.3z M81.7,19.3c0-0.4-0.1-0.8-0.3-1.1c-0.2-0.3-0.4-0.5-0.6-0.7c-0.2-0.2-0.5-0.3-0.8-0.4
			c-0.6-0.1-1.2-0.1-1.8,0c-0.3,0.1-0.6,0.2-0.8,0.4c-0.3,0.2-0.5,0.4-0.6,0.7c-0.2,0.4-0.3,0.7-0.3,1.1c0,0.1,0,0.3,0,0.5
			s0,0.4,0,0.6s0,0.4,0,0.6s0,0.3,0,0.4c0,0.4,0.1,0.8,0.3,1.1c0.2,0.3,0.4,0.5,0.6,0.7c0.2,0.2,0.5,0.3,0.8,0.4
			c0.6,0.1,1.2,0.1,1.8,0c0.3-0.1,0.6-0.2,0.8-0.4c0.3-0.2,0.5-0.4,0.6-0.7c0.2-0.4,0.3-0.7,0.3-1.1c0-0.1,0-0.3,0-0.4v-1.1
			C81.7,19.7,81.7,19.5,81.7,19.3L81.7,19.3z"/>
		<path class="st0" d="M90,21.7v3.9c0,0.3-0.3,0.6-0.6,0.6h-1.7c-0.3,0-0.6-0.3-0.6-0.6V10.9c0-0.3,0.3-0.6,0.6-0.6h1.7
			c0.3,0,0.6,0.3,0.6,0.6V18l3.7-3c0.1-0.1,0.2-0.2,0.3-0.2c0.2-0.1,0.3-0.1,0.5-0.1h2.3c0.3,0,0.5,0.2,0.5,0.5v0c0,0.1,0,0.1,0,0.2
			c0,0.1-0.1,0.2-0.2,0.2L92,19.8l5.7,5.5c0.1,0.1,0.1,0.1,0.2,0.2c0,0.1,0,0.1,0,0.2c0,0.3-0.2,0.5-0.5,0.5l0,0h-2.1
			c-0.2,0-0.4,0-0.6-0.1c-0.1-0.1-0.2-0.2-0.3-0.2L90,21.7z"/>
		<path class="st0" d="M102.1,10.3c0.3,0,0.6,0.3,0.6,0.6v1.8c0,0.3-0.3,0.6-0.6,0.6h-1.9c-0.3,0-0.6-0.3-0.6-0.6v-1.8
			c0-0.3,0.3-0.6,0.6-0.6L102.1,10.3z M102.6,25.6c0,0.3-0.3,0.6-0.6,0.6h-1.7c-0.3,0-0.6-0.3-0.6-0.6V15.2c0-0.3,0.3-0.6,0.6-0.6
			h1.7c0.3,0,0.6,0.3,0.6,0.6L102.6,25.6z"/>
		<path class="st0" d="M105.1,20.4c0-0.8,0.1-1.6,0.4-2.4c0.2-0.7,0.6-1.4,1.1-1.9c0.5-0.5,1.1-1,1.7-1.3c0.7-0.3,1.5-0.5,2.3-0.5
			c0.8,0,1.6,0.1,2.3,0.5c0.7,0.3,1.2,0.7,1.7,1.2c0.5,0.5,0.9,1.1,1.1,1.8c0.3,0.7,0.4,1.4,0.4,2.2v1c0,0.3-0.3,0.6-0.6,0.6H108
			c0,0.3,0.1,0.6,0.2,0.9c0.1,0.3,0.3,0.5,0.6,0.7c0.2,0.2,0.5,0.3,0.8,0.4c0.3,0.1,0.7,0.1,1,0.1c0.4,0,0.8,0,1.2-0.1
			c0.3-0.1,0.5-0.2,0.7-0.4c0.1-0.1,0.3-0.2,0.4-0.2c0.1-0.1,0.3-0.1,0.4-0.1h1.8c0.2,0,0.3,0.1,0.4,0.2c0.1,0.1,0.2,0.3,0.2,0.4
			c0,0.3-0.2,0.6-0.3,0.8c-0.3,0.4-0.6,0.7-1,1c-0.5,0.3-1,0.6-1.6,0.8c-0.7,0.2-1.5,0.4-2.2,0.3c-0.8,0-1.6-0.1-2.3-0.4
			c-0.7-0.3-1.3-0.7-1.7-1.2c-0.5-0.6-0.9-1.2-1.1-1.9C105.2,22,105.1,21.2,105.1,20.4z M110.6,17c-0.4,0-0.8,0.1-1.1,0.2
			c-0.3,0.1-0.5,0.3-0.8,0.5c-0.2,0.2-0.4,0.4-0.5,0.7c-0.1,0.2-0.2,0.5-0.2,0.7h5.1c0-0.2-0.1-0.5-0.2-0.7
			c-0.1-0.2-0.2-0.5-0.4-0.7c-0.2-0.2-0.5-0.4-0.7-0.5C111.4,17.1,111,17,110.6,17z"/>
		<path class="st0" d="M119.4,26.2c-0.3,0-0.6-0.3-0.6-0.6V11.1c0-0.3,0.3-0.6,0.6-0.6h6.6c0.8,0,1.6,0.1,2.4,0.4
			c0.6,0.3,1.1,0.6,1.5,1.1c0.4,0.4,0.7,0.9,0.8,1.4c0.2,0.5,0.3,0.9,0.3,1.4c0,0.4-0.1,0.8-0.2,1.2c-0.1,0.3-0.3,0.6-0.4,0.9
			c-0.2,0.2-0.3,0.4-0.5,0.6c-0.1,0.1-0.3,0.2-0.4,0.3c0.5,0.4,0.9,0.8,1.3,1.3c0.4,0.7,0.6,1.4,0.6,2.2c0,0.6-0.1,1.1-0.3,1.7
			c-0.2,0.6-0.5,1.1-0.9,1.5c-0.4,0.5-0.9,0.8-1.5,1.1c-0.7,0.3-1.4,0.4-2.1,0.4L119.4,26.2z M128,15c0-0.5-0.2-1-0.5-1.3
			c-0.5-0.3-1.1-0.5-1.7-0.4h-4v3.5h4c0.6,0,1.2-0.1,1.7-0.4C127.8,16,128,15.5,128,15z M121.8,23.4h4.1c0.6,0.1,1.3-0.1,1.8-0.5
			c0.8-0.7,0.8-2,0-2.7c0,0,0,0,0,0c-0.5-0.4-1.1-0.6-1.8-0.5h-4.1L121.8,23.4z"/>
		<path class="st0" d="M133.8,15.2c0-0.3,0.3-0.6,0.6-0.6h1.7c0.3,0,0.6,0.3,0.6,0.6v5.7c0,0.8,0.2,1.5,0.6,2.1
			c0.4,0.6,1.1,0.9,1.9,0.8c0.7,0,1.4-0.3,1.8-0.8c0.4-0.6,0.7-1.4,0.6-2.1v-5.7c0-0.3,0.3-0.6,0.6-0.6h1.7c0.3,0,0.6,0.3,0.6,0.6
			v10.4c0,0.3-0.3,0.6-0.6,0.6h-1.7c-0.3,0-0.6-0.3-0.6-0.6v-0.5c-0.4,0.4-0.8,0.7-1.3,0.9c-0.6,0.3-1.2,0.4-1.8,0.4
			c-0.8,0-1.5-0.1-2.3-0.4c-0.6-0.3-1.1-0.6-1.4-1.1c-0.4-0.5-0.6-1.1-0.8-1.7c-0.2-0.7-0.2-1.3-0.2-2L133.8,15.2z"/>
		<path class="st0" d="M153.9,14.3c0.7,0,1.4,0.1,2,0.4c0.6,0.3,1.1,0.7,1.5,1.2c0.4,0.5,0.8,1.1,1,1.7c0.2,0.6,0.4,1.3,0.4,2
			c0,0.2,0,0.5,0,0.8c0,0.3,0,0.6,0,0.8c0,0.7-0.2,1.4-0.4,2c-0.2,0.6-0.6,1.2-1,1.7c-0.4,0.5-0.9,0.9-1.5,1.1
			c-0.6,0.3-1.3,0.4-2,0.4c-0.4,0-0.8,0-1.2-0.1c-0.3-0.1-0.7-0.2-1-0.3c-0.3-0.1-0.5-0.3-0.7-0.4c-0.2-0.1-0.3-0.3-0.5-0.4v0.5
			c0,0.3-0.3,0.6-0.6,0.6h-1.7c-0.3,0-0.6-0.3-0.6-0.6V10.9c0-0.3,0.3-0.6,0.6-0.6h1.7c0.3,0,0.6,0.3,0.6,0.6v4.8
			c0.1-0.2,0.3-0.3,0.5-0.4c0.2-0.2,0.5-0.3,0.7-0.4c0.3-0.1,0.7-0.3,1-0.3C153.1,14.4,153.5,14.3,153.9,14.3z M156,19.8
			c0-0.8-0.3-1.5-0.9-2.1c-0.5-0.4-1.2-0.7-1.9-0.6c-0.7,0-1.3,0.2-1.9,0.7c-0.5,0.5-0.8,1.1-0.9,1.8c-0.1,0.6-0.1,1.1,0,1.7
			c0,0.7,0.3,1.4,0.9,1.9c0.5,0.4,1.2,0.7,1.9,0.6c0.7,0,1.3-0.2,1.9-0.6c0.6-0.6,0.9-1.3,0.9-2.1C156,20.6,156,20.2,156,19.8z"/>
		<path class="st0" d="M167.8,14.3c0.7,0,1.4,0.1,2,0.4c0.6,0.3,1.1,0.7,1.5,1.2c0.4,0.5,0.8,1.1,1,1.7c0.2,0.6,0.4,1.3,0.4,2
			c0,0.2,0,0.5,0,0.8c0,0.3,0,0.6,0,0.8c0,0.7-0.2,1.4-0.4,2c-0.2,0.6-0.6,1.2-1,1.7c-0.4,0.5-0.9,0.9-1.5,1.1
			c-0.6,0.3-1.3,0.4-2,0.4c-0.4,0-0.8,0-1.2-0.1c-0.3-0.1-0.7-0.2-1-0.3c-0.3-0.1-0.5-0.3-0.7-0.4c-0.2-0.1-0.3-0.3-0.5-0.4v0.5
			c0,0.3-0.3,0.6-0.6,0.6h-1.7c-0.3,0-0.6-0.3-0.6-0.6V10.9c0-0.3,0.3-0.6,0.6-0.6h1.7c0.3,0,0.6,0.3,0.6,0.6v4.8
			c0.1-0.2,0.3-0.3,0.5-0.4c0.2-0.2,0.5-0.3,0.7-0.4c0.3-0.1,0.7-0.3,1-0.3C166.9,14.4,167.4,14.3,167.8,14.3z M169.8,19.8
			c0-0.8-0.3-1.5-0.9-2.1c-0.5-0.4-1.2-0.7-1.9-0.6c-0.7,0-1.3,0.2-1.9,0.7c-0.5,0.5-0.8,1.1-0.9,1.8c-0.1,0.6-0.1,1.1,0,1.7
			c0,0.7,0.3,1.4,0.9,1.9c0.5,0.4,1.2,0.7,1.9,0.6c0.7,0,1.3-0.2,1.9-0.6c0.6-0.6,0.9-1.3,0.9-2.1C169.9,20.6,169.9,20.2,169.8,19.8
			z"/>
		<path class="st0" d="M178.2,25.6c0,0.3-0.3,0.6-0.6,0.6h-1.7c-0.3,0-0.6-0.3-0.6-0.6V10.9c0-0.3,0.3-0.6,0.6-0.6h1.7
			c0.3,0,0.6,0.3,0.6,0.6V25.6z"/>
		<path class="st0" d="M180.8,20.4c0-0.8,0.1-1.6,0.4-2.4c0.2-0.7,0.6-1.4,1.1-1.9c0.5-0.5,1.1-1,1.8-1.3c0.7-0.3,1.5-0.5,2.3-0.5
			c0.8,0,1.6,0.1,2.3,0.5c0.6,0.3,1.2,0.7,1.7,1.2c0.5,0.5,0.9,1.1,1.1,1.8c0.3,0.7,0.4,1.4,0.4,2.2v1c0,0.3-0.3,0.6-0.6,0.6h-7.5
			c0,0.3,0.1,0.6,0.2,0.9c0.1,0.3,0.3,0.5,0.6,0.7c0.2,0.2,0.5,0.3,0.8,0.4c0.3,0.1,0.7,0.1,1,0.1c0.4,0,0.8,0,1.2-0.1
			c0.3-0.1,0.5-0.2,0.7-0.4c0.1-0.1,0.3-0.2,0.4-0.2c0.1-0.1,0.3-0.1,0.4-0.1h1.8c0.2,0,0.3,0.1,0.4,0.2c0.1,0.1,0.2,0.3,0.2,0.4
			c0,0.3-0.2,0.6-0.4,0.8c-0.3,0.4-0.6,0.7-1,1c-0.5,0.3-1,0.6-1.6,0.8c-0.7,0.2-1.5,0.4-2.2,0.3c-0.8,0-1.5-0.1-2.2-0.4
			c-0.7-0.3-1.3-0.7-1.7-1.2c-0.5-0.6-0.9-1.2-1.1-1.9C180.9,22.1,180.7,21.2,180.8,20.4z M186.2,17c-0.4,0-0.8,0.1-1.1,0.2
			c-0.3,0.1-0.5,0.3-0.8,0.5c-0.2,0.2-0.4,0.4-0.5,0.7c-0.1,0.2-0.2,0.5-0.2,0.7h5.1c0-0.2-0.1-0.5-0.2-0.7
			c-0.1-0.2-0.2-0.5-0.4-0.7c-0.2-0.2-0.5-0.4-0.7-0.5C187,17.1,186.6,17,186.2,17z"/>
		<path class="st0" d="M36.2,28.1L36.2,28.1c0.2-0.5,0.1-1-0.3-1.3c-1.2-0.7-1.9-2-1.8-3.4c0-0.3-0.1-0.5-0.3-0.7
			c-0.2-0.2-0.5-0.3-0.7-0.2c-0.8,0.1-1.5,0-2.2-0.4c-0.6-0.3-1.1-0.8-1.4-1.3c-0.8-1.2-0.7-2.8,0-4c0.1-0.2,0.2-0.5,0.1-0.8
			c-0.1-0.3-0.3-0.5-0.5-0.6l-0.3-0.1c-1.2-0.6-1.9-1.8-2-3.1c0-1.4,0.7-2.8,2-3.5c0.2-0.1,0.4-0.4,0.5-0.6c0.1-0.3,0-0.5-0.2-0.8
			c-0.8-1.1-1-2.6-0.4-3.8c0.2-0.4,0-1-0.4-1.2h-0.1l-0.2-0.1C18.4-2.1,6.9,2.4,2.6,12.2c-3.9,8.9-0.7,19.3,7.6,24.4
			c9.5,4.9,21.1,1.2,26-8.2L36.2,28.1z M19.9,36.8c-3.1,0.2-6.2-0.5-8.9-2C2.5,30.3-0.6,19.7,3.9,11.2C6.5,6.3,11.2,2.9,16.7,2
			c3.5-0.5,7,0,10.2,1.6c-0.4,1.3-0.2,2.8,0.4,4c-1.4,1.1-2.3,2.8-2.2,4.6c0.1,1.8,1,3.5,2.5,4.5c-0.7,1.7-0.5,3.6,0.4,5.1
			c0.9,1.5,2.6,2.5,4.4,2.6c0.2,1.4,0.8,2.7,1.9,3.5C31.3,33.1,25.9,36.5,19.9,36.8z"/>
		<path class="st0" d="M19.5,0C12.2,0,5.6,4,2.3,10.4c-5,9.4-1.5,21.1,7.9,26.1c2.7,1.4,5.8,2.2,8.9,2.2c7.2,0,13.8-4,17.2-10.4
			l0.1-0.2v-0.1c0.2-0.4,0.1-1-0.3-1.2c-1.2-0.7-1.9-2-1.8-3.4c0-0.3-0.1-0.5-0.3-0.7c-0.2-0.2-0.4-0.2-0.6-0.2h-0.1
			c-0.2,0-0.3,0-0.5,0c-0.6,0-1.2-0.1-1.7-0.4c-0.6-0.3-1.1-0.8-1.4-1.3c-0.8-1.2-0.7-2.8,0-4c0.1-0.2,0.2-0.5,0.1-0.8
			c-0.1-0.3-0.3-0.5-0.5-0.6l-0.3-0.1c-1.2-0.6-1.9-1.8-2-3.1c0-1.4,0.7-2.8,2-3.5c0.2-0.1,0.4-0.4,0.5-0.6c0.1-0.3,0-0.5-0.2-0.8
			c-0.8-1.1-1-2.6-0.4-3.8c0.2-0.4,0-1-0.4-1.2h-0.1l-0.2-0.1C25.5,0.8,22.5,0,19.5,0z M19,36.8c-2.8,0-5.5-0.7-8-2
			C2.5,30.3-0.7,19.7,3.9,11.2C6.5,6.3,11.2,2.9,16.7,2c0.9-0.1,1.8-0.2,2.7-0.2c2.6,0,5.2,0.6,7.5,1.8c-0.4,1.3-0.2,2.8,0.4,4
			c-1.4,1.1-2.3,2.8-2.2,4.6c0.1,1.8,1,3.5,2.5,4.5c-0.7,1.7-0.5,3.6,0.4,5.1c0.9,1.5,2.6,2.5,4.4,2.6c0.2,1.4,0.8,2.7,1.9,3.5
			c-3,5.2-8.3,8.5-14.3,8.9L19,36.8L19,36.8z"/>
	</g>
</g>
</svg>
