<svg xmlns="http://www.w3.org/2000/svg" viewBox="0 0 29.95 29.63"><defs><style>.cls-1{fill:#fff;}</style></defs><title>magic-icon</title><g id="Layer_2" data-name="Layer 2"><g id="Layer_1-2" data-name="Layer 1"><rect class="cls-1" x="14.86" y="11.15" width="5.01" height="2.21" transform="translate(-3.58 15.87) rotate(-45)"/><rect class="cls-1" x="-2.06" y="20.88" width="19.4" height="2.21" transform="translate(-13.31 11.84) rotate(-45)"/><path class="cls-1" d="M25.7,3.2,24,4.9A.77.77,0,0,0,24,6a.76.76,0,0,0,.55.23A.79.79,0,0,0,25.1,6l1.7-1.7a.77.77,0,0,0,0-1.09A.78.78,0,0,0,25.7,3.2Z"/><path class="cls-1" d="M24,17l1.7,1.7a.76.76,0,0,0,.55.23.79.79,0,0,0,.55-.23.77.77,0,0,0,0-1.09l-1.7-1.7A.78.78,0,0,0,24,17Z"/><path class="cls-1" d="M13.52,6.21A.79.79,0,0,0,14.08,6a.77.77,0,0,0,0-1.09l-1.7-1.7a.77.77,0,0,0-1.09,1.09L13,6A.73.73,0,0,0,13.52,6.21Z"/><path class="cls-1" d="M26.07,11a.78.78,0,0,0,.78.78h2.33a.78.78,0,1,0,0-1.55H26.85A.78.78,0,0,0,26.07,11Z"/><path class="cls-1" d="M8.15,11a.78.78,0,0,0,.78.78h2.41a.78.78,0,1,0,0-1.55H8.92A.78.78,0,0,0,8.15,11Z"/><path class="cls-1" d="M18.93,4a.78.78,0,0,0,.78-.78V.78a.78.78,0,1,0-1.55,0V3.18A.77.77,0,0,0,18.93,4Z"/><path class="cls-1" d="M18.16,18.78V21a.78.78,0,1,0,1.55,0V18.78a.78.78,0,1,0-1.55,0Z"/></g></g></svg>